<svg width="24" height="24" viewBox="0 0 24 24" fill="none" xmlns="http://www.w3.org/2000/svg">
<path d="M10.5 9H7.4835C7.25505 8.99996 7.0296 9.05209 6.82436 9.15244C6.61913 9.25278 6.43952 9.39868 6.29925 9.579L2.13225 14.9377C1.72268 15.4642 1.50021 16.112 1.5 16.779V18.75C1.5 19.1478 1.65804 19.5294 1.93934 19.8107C2.22064 20.092 2.60218 20.25 3 20.25H10.74C10.74 14.781 11.3385 9.816 10.5 9Z" fill="#E6E6E6"/>
<path d="M11.1675 6.65088C10.9557 6.85978 10.7876 7.10875 10.673 7.38328C10.5584 7.65781 10.4996 7.95239 10.5 8.24988V15.8174H22.5V7.49988C22.5005 7.19672 22.4087 6.90059 22.2368 6.65088H11.1668H11.1675Z" fill="#F92F60"/>
<path d="M12.75 6C12.4334 5.99954 12.1202 6.06613 11.8312 6.1954C11.5421 6.32467 11.2837 6.51368 11.073 6.75H22.299C22.1674 6.52198 21.978 6.33263 21.75 6.20097C21.522 6.06932 21.2633 6.00001 21 6H12.75ZM22.5 15.75H10.5V20.25H21C21.3978 20.25 21.7794 20.092 22.0607 19.8107C22.342 19.5294 22.5 19.1478 22.5 18.75V15.75Z" fill="#D3D3D3"/>
<path d="M9 19.875C9 20.5712 8.72344 21.2389 8.23116 21.7312C7.73887 22.2234 7.07119 22.5 6.375 22.5C5.67881 22.5 5.01113 22.2234 4.51884 21.7312C4.02656 21.2389 3.75 20.5712 3.75 19.875C3.75 19.1788 4.02656 18.5111 4.51884 18.0188C5.01113 17.5266 5.67881 17.25 6.375 17.25C7.07119 17.25 7.73887 17.5266 8.23116 18.0188C8.72344 18.5111 9 19.1788 9 19.875ZM20.25 19.875C20.25 20.5712 19.9734 21.2389 19.4812 21.7312C18.9889 22.2234 18.3212 22.5 17.625 22.5C16.9288 22.5 16.2611 22.2234 15.7688 21.7312C15.2766 21.2389 15 20.5712 15 19.875C15 19.1788 15.2766 18.5111 15.7688 18.0188C16.2611 17.5266 16.9288 17.25 17.625 17.25C18.3212 17.25 18.9889 17.5266 19.4812 18.0188C19.9734 18.5111 20.25 19.1788 20.25 19.875Z" fill="#433B6B"/>
<path d="M7.5 19.875C7.5 20.1734 7.38147 20.4595 7.1705 20.6705C6.95952 20.8815 6.67337 21 6.375 21C6.07663 21 5.79048 20.8815 5.5795 20.6705C5.36853 20.4595 5.25 20.1734 5.25 19.875C5.25 19.5766 5.36853 19.2905 5.5795 19.0795C5.79048 18.8685 6.07663 18.75 6.375 18.75C6.67337 18.75 6.95952 18.8685 7.1705 19.0795C7.38147 19.2905 7.5 19.5766 7.5 19.875ZM18.75 19.875C18.75 20.0227 18.7209 20.169 18.6644 20.3055C18.6078 20.442 18.525 20.566 18.4205 20.6705C18.316 20.775 18.192 20.8578 18.0555 20.9144C17.919 20.9709 17.7727 21 17.625 21C17.4773 21 17.331 20.9709 17.1945 20.9144C17.058 20.8578 16.934 20.775 16.8295 20.6705C16.725 20.566 16.6422 20.442 16.5856 20.3055C16.5291 20.169 16.5 20.0227 16.5 19.875C16.5 19.5766 16.6185 19.2905 16.8295 19.0795C17.0405 18.8685 17.3266 18.75 17.625 18.75C17.9234 18.75 18.2095 18.8685 18.4205 19.0795C18.6315 19.2905 18.75 19.5766 18.75 19.875ZM16.5 9C16.3011 9 16.1103 9.07902 15.9697 9.21967C15.829 9.36032 15.75 9.55109 15.75 9.75V10.5H15C14.8011 10.5 14.6103 10.579 14.4697 10.7197C14.329 10.8603 14.25 11.0511 14.25 11.25C14.25 11.4489 14.329 11.6397 14.4697 11.7803C14.6103 11.921 14.8011 12 15 12H15.75V12.75C15.75 12.9489 15.829 13.1397 15.9697 13.2803C16.1103 13.421 16.3011 13.5 16.5 13.5C16.6989 13.5 16.8897 13.421 17.0303 13.2803C17.171 13.1397 17.25 12.9489 17.25 12.75V12H18C18.1989 12 18.3897 11.921 18.5303 11.7803C18.671 11.6397 18.75 11.4489 18.75 11.25C18.75 11.0511 18.671 10.8603 18.5303 10.7197C18.3897 10.579 18.1989 10.5 18 10.5H17.25V9.75C17.25 9.55109 17.171 9.36032 17.0303 9.21967C16.8897 9.07902 16.6989 9 16.5 9Z" fill="#F4F4F4"/>
<path d="M2.25 18.75H1.5V16.779C1.50008 16.428 1.56177 16.0797 1.68225 15.75H2.25C2.44891 15.75 2.63968 15.829 2.78033 15.9697C2.92098 16.1103 3 16.3011 3 16.5V18C3 18.1989 2.92098 18.3897 2.78033 18.5303C2.63968 18.671 2.44891 18.75 2.25 18.75ZM22.125 16.5C21.8266 16.5 21.5405 16.6185 21.3295 16.8295C21.1185 17.0405 21 17.3266 21 17.625C21 17.9234 21.1185 18.2095 21.3295 18.4205C21.5405 18.6315 21.8266 18.75 22.125 18.75H22.5V16.5H22.125Z" fill="#FF822D"/>
<path d="M3.24976 13.5H8.25001C8.64783 13.5 9.02936 13.342 9.31067 13.0607C9.59197 12.7794 9.75001 12.3978 9.75001 12V10.5C9.75001 10.3011 9.67099 10.1103 9.53034 9.96967C9.38968 9.82902 9.19892 9.75 9.00001 9.75H6.16651L3.24976 13.5Z" fill="#26C9FC"/>
<path d="M7.5 9C7.5 8.80109 7.57902 8.61032 7.71967 8.46967C7.86032 8.32902 8.05109 8.25 8.25 8.25H9.75C9.94891 8.25 10.1397 8.32902 10.2803 8.46967C10.421 8.61032 10.5 8.80109 10.5 9H7.5Z" fill="#D3D3D3"/>
<path d="M8.25 8.25C8.25 8.05109 8.32902 7.86032 8.46967 7.71967C8.61032 7.57902 8.80109 7.5 9 7.5C9.19891 7.5 9.38968 7.57902 9.53033 7.71967C9.67098 7.86032 9.75 8.05109 9.75 8.25H8.25Z" fill="#F8312F"/>
</svg>
