<svg width="128" height="40" viewBox="0 0 128 40" fill="none" xmlns="http://www.w3.org/2000/svg">
<path d="M124 40H4C1.8 40 0 38.2 0 36V4C0 1.8 1.8 0 4 0H124C126.2 0 128 1.8 128 4V36C128 38.2 126.2 40 124 40Z" fill="black"/>
<path d="M27 19.8C27 16.7 29.6 15.2 29.7 15.1C28.2 13 26 12.7 25.2 12.6C23.3 12.4 21.4 13.7 20.5 13.7C19.5 13.7 18 12.6 16.4 12.6C14.3 12.6 12.4 13.8 11.3 15.7C9.10001 19.5 10.7 25.1 12.8 28.2C13.9 29.7 15.1 31.4 16.7 31.3C18.3 31.2 18.9 30.3 20.8 30.3C22.7 30.3 23.2 31.3 24.9 31.3C26.6 31.3 27.7 29.8 28.7 28.3C29.9 26.6 30.4 24.9 30.4 24.8C30.3 24.7 27 23.5 27 19.8Z" fill="white"/>
<path d="M23.8999 10.6001C24.6999 9.5001 25.2999 8.1001 25.1999 6.6001C23.9999 6.7001 22.3999 7.4001 21.5999 8.5001C20.7999 9.4001 20.0999 10.9001 20.2999 12.3001C21.5999 12.4001 22.9999 11.6001 23.8999 10.6001Z" fill="white"/>
<path d="M49.8 31.1002H47.6L46.4 27.3002H42.2L41.1 31.1002H39L43.2 18.2002H45.8L49.8 31.1002ZM46 25.7002L44.9 22.3002C44.8 22.0002 44.6 21.1002 44.2 19.9002C44.1 20.4002 43.9 21.3002 43.6 22.3002L42.5 25.7002H46Z" fill="white"/>
<path d="M60.5 26.4002C60.5 28.0002 60.1 29.2002 59.2 30.2002C58.4 31.0002 57.5 31.4002 56.3 31.4002C55.1 31.4002 54.2 31.0002 53.7 30.1002V35.0002H51.6V25.0002C51.6 24.0002 51.6 23.0002 51.5 21.9002H53.3L53.4 23.4002C54.1 22.3002 55.1 21.7002 56.5 21.7002C57.6 21.7002 58.5 22.1002 59.2 23.0002C60.1 23.8002 60.5 24.9002 60.5 26.4002ZM58.4 26.4002C58.4 25.5002 58.2 24.7002 57.8 24.2002C57.4 23.6002 56.8 23.3002 56 23.3002C55.5 23.3002 55 23.5002 54.6 23.8002C54.2 24.1002 53.9 24.6002 53.8 25.1002C53.7 25.4002 53.7 25.6002 53.7 25.7002V27.3002C53.7 28.0002 53.9 28.5002 54.3 29.0002C54.7 29.5002 55.3 29.7002 55.9 29.7002C56.7 29.7002 57.3 29.4002 57.7 28.8002C58.2 28.2002 58.4 27.4002 58.4 26.4002Z" fill="white"/>
<path d="M71.2 26.4002C71.2 28.0002 70.7999 29.2002 69.8999 30.2002C69.0999 31.0002 68.1999 31.4002 66.9999 31.4002C65.7999 31.4002 64.8999 31.0002 64.3999 30.1002V35.0002H62.2999V25.0002C62.2999 24.0002 62.3 23.0002 62.2 21.9002H63.9999L64.1 23.4002C64.8 22.3002 65.8 21.7002 67.2 21.7002C68.3 21.7002 69.1999 22.1002 69.8999 23.0002C70.7999 23.8002 71.2 24.9002 71.2 26.4002ZM69.1 26.4002C69.1 25.5002 68.8999 24.7002 68.4999 24.2002C68.0999 23.6002 67.5 23.3002 66.7 23.3002C66.2 23.3002 65.6999 23.5002 65.2999 23.8002C64.8999 24.1002 64.5999 24.6002 64.4999 25.1002C64.3999 25.4002 64.3999 25.6002 64.3999 25.7002V27.3002C64.3999 28.0002 64.5999 28.5002 64.9999 29.0002C65.3999 29.5002 66 29.7002 66.6 29.7002C67.4 29.7002 67.9999 29.4002 68.3999 28.8002C68.8999 28.2002 69.1 27.4002 69.1 26.4002Z" fill="white"/>
<path d="M83.2001 27.5001C83.2001 28.6001 82.8001 29.5001 82.1001 30.2001C81.3001 31.0001 80.1001 31.3001 78.6001 31.3001C77.2001 31.3001 76.1 31.0001 75.3 30.5001L75.8 28.8001C76.7 29.3001 77.7 29.6001 78.8 29.6001C79.6 29.6001 80.2001 29.4001 80.6001 29.1001C81.0001 28.7001 81.2001 28.3001 81.2001 27.7001C81.2001 27.2001 81.0001 26.7001 80.7001 26.4001C80.3001 26.0001 79.7 25.7001 78.9 25.4001C76.6 24.6001 75.5 23.3001 75.5 21.7001C75.5 20.6001 75.9001 19.8001 76.7001 19.1001C77.5001 18.4001 78.5 18.1001 79.9 18.1001C81.1 18.1001 82 18.3001 82.8 18.7001L82.3 20.4001C81.6 20.0001 80.8 19.8001 79.8 19.8001C79.1 19.8001 78.5001 20.0001 78.1001 20.3001C77.8001 20.6001 77.6001 21.0001 77.6001 21.5001C77.6001 22.0001 77.8001 22.4001 78.2001 22.8001C78.5001 23.1001 79.2001 23.4001 80.1001 23.8001C81.2001 24.2001 82.0001 24.8001 82.6001 25.4001C82.9001 25.9001 83.2001 26.6001 83.2001 27.5001Z" fill="white"/>
<path d="M90 23.4H87.7V27.9C87.7 29 88.1001 29.6 88.9001 29.6C89.3001 29.6 89.6 29.6 89.8 29.5L89.9001 31.1C89.5001 31.3 89 31.3 88.3 31.3C87.5 31.3 86.8001 31.1 86.4001 30.6C85.9001 30.1 85.7 29.3 85.7 28.1V23.4H84.3V21.8H85.7V20.1L87.7 19.5V21.8H90V23.4Z" fill="white"/>
<path d="M100.3 26.4001C100.3 27.8001 99.9 29.0001 99.1 29.9001C98.2 30.8001 97.1 31.3001 95.7 31.3001C94.3 31.3001 93.2 30.8001 92.4 29.9001C91.6 29.0001 91.2 27.9001 91.2 26.5001C91.2 25.1001 91.6 23.9001 92.5 23.0001C93.3 22.1001 94.5 21.6001 95.9 21.6001C97.3 21.6001 98.4 22.1001 99.2 23.0001C99.9 23.9001 100.3 25.0001 100.3 26.4001ZM98.1 26.5001C98.1 25.6001 97.9 24.9001 97.5 24.3001C97.1 23.6001 96.4 23.2001 95.6 23.2001C94.8 23.2001 94.1 23.6001 93.7 24.3001C93.3 24.9001 93.1 25.7001 93.1 26.5001C93.1 27.4001 93.3 28.1001 93.7 28.7001C94.1 29.4001 94.8 29.8001 95.6 29.8001C96.4 29.8001 97 29.4001 97.5 28.7001C97.9 28.1001 98.1 27.3001 98.1 26.5001Z" fill="white"/>
<path d="M107 23.6C106.8 23.6 106.6 23.5 106.3 23.5C105.6 23.5 105 23.8 104.6 24.3C104.3 24.8 104.1 25.4 104.1 26.1V31H102V24.6C102 23.5 102 22.6 101.9 21.7H103.7L103.8 23.5H103.9C104.1 22.9 104.5 22.4 104.9 22C105.4 21.7 105.9 21.5 106.4 21.5C106.6 21.5 106.8 21.5 106.9 21.5V23.6H107Z" fill="white"/>
<path d="M116.2 26.0001C116.2 26.4001 116.2 26.7001 116.1 26.9001H109.9C109.9 27.8001 110.2 28.5001 110.8 29.0001C111.3 29.4001 112 29.7001 112.8 29.7001C113.7 29.7001 114.6 29.6001 115.3 29.3001L115.6 30.7001C114.7 31.1001 113.7 31.3001 112.5 31.3001C111.1 31.3001 109.9 30.9001 109.1 30.0001C108.3 29.2001 107.9 28.0001 107.9 26.6001C107.9 25.2001 108.3 24.0001 109 23.1001C109.8 22.1001 110.9 21.6001 112.3 21.6001C113.6 21.6001 114.7 22.1001 115.3 23.1001C116 23.9001 116.2 24.9001 116.2 26.0001ZM114.3 25.5001C114.3 24.9001 114.2 24.4001 113.9 23.9001C113.5 23.3001 113 23.0001 112.3 23.0001C111.6 23.0001 111.1 23.3001 110.7 23.8001C110.4 24.2001 110.2 24.8001 110.1 25.4001H114.3V25.5001Z" fill="white"/>
<path d="M45.3999 10.2998C45.3999 11.3998 45.0999 12.2998 44.3999 12.8998C43.7999 13.3998 42.9 13.6998 41.7 13.6998C41.1 13.6998 40.6 13.6998 40.2 13.5998V7.39981C40.7 7.29981 41.2999 7.2998 41.9999 7.2998C43.0999 7.2998 43.8999 7.49981 44.4999 7.99981C44.9999 8.49981 45.3999 9.2998 45.3999 10.2998ZM44.2999 10.2998C44.2999 9.5998 44.1 8.99981 43.7 8.59981C43.3 8.19981 42.6999 7.99981 41.9999 7.99981C41.6999 7.99981 41.4 7.99981 41.2 8.09981V12.7998C41.3 12.7998 41.5999 12.7998 41.8999 12.7998C42.6999 12.7998 43.3 12.5998 43.7 12.1998C44.1 11.7998 44.2999 11.0998 44.2999 10.2998Z" fill="white"/>
<path d="M51 11.2999C51 11.9999 50.8 12.5999 50.4 12.9999C50 13.4999 49.4 13.6999 48.7 13.6999C48 13.6999 47.5 13.4999 47.1 12.9999C46.7 12.5999 46.5 11.9999 46.5 11.2999C46.5 10.5999 46.7 9.9999 47.1 9.5999C47.5 9.0999 48.1 8.8999 48.8 8.8999C49.5 8.8999 50 9.0999 50.4 9.5999C50.8 9.9999 51 10.5999 51 11.2999ZM50 11.2999C50 10.8999 49.9 10.4999 49.7 10.1999C49.5 9.7999 49.2 9.6999 48.8 9.6999C48.4 9.6999 48.1 9.8999 47.9 10.1999C47.7 10.4999 47.6 10.8999 47.6 11.2999C47.6 11.6999 47.7 12.0999 47.9 12.3999C48.1 12.7999 48.4 12.8999 48.8 12.8999C49.2 12.8999 49.5 12.6999 49.7 12.2999C49.9 12.0999 50 11.6999 50 11.2999Z" fill="white"/>
<path d="M58.7 9L57.3 13.6H56.4L55.8 11.6C55.6 11.1 55.5 10.6 55.4 10.1C55.3 10.6 55.2 11.1 55 11.6L54.4 13.6H53.5L52 9H53L53.5 11.2C53.6 11.7 53.7 12.2 53.8 12.7C53.9 12.3 54 11.8 54.2 11.2L54.8 9H55.6L56.2 11.1C56.4 11.6 56.5 12.1 56.6 12.6C56.7 12.1 56.8 11.6 56.9 11.1L57.5 9H58.7Z" fill="white"/>
<path d="M63.9 13.5998H62.9V10.9998C62.9 10.1998 62.6 9.7998 62 9.7998C61.7 9.7998 61.5 9.89981 61.3 10.0998C61.1 10.2998 61 10.5998 61 10.8998V13.5998H60V10.2998C60 9.8998 60 9.49981 60 8.99981H60.9V9.69981C61 9.49981 61.2 9.29981 61.4 9.09981C61.7 8.89981 62 8.7998 62.3 8.7998C62.7 8.7998 63.1 8.89981 63.4 9.19981C63.8 9.49981 63.9 9.99981 63.9 10.6998V13.5998Z" fill="white"/>
<path d="M66.7 13.5999H65.7V6.8999H66.7V13.5999Z" fill="white"/>
<path d="M72.7 11.2999C72.7 11.9999 72.5 12.5999 72.1 12.9999C71.7 13.4999 71.0999 13.6999 70.3999 13.6999C69.6999 13.6999 69.1999 13.4999 68.7999 12.9999C68.3999 12.5999 68.2 11.9999 68.2 11.2999C68.2 10.5999 68.3999 9.9999 68.7999 9.5999C69.1999 9.1999 69.7999 8.8999 70.4999 8.8999C71.1999 8.8999 71.7 9.0999 72.1 9.5999C72.5 9.9999 72.7 10.5999 72.7 11.2999ZM71.7 11.2999C71.7 10.8999 71.5999 10.4999 71.3999 10.1999C71.1999 9.7999 70.8999 9.6999 70.4999 9.6999C70.0999 9.6999 69.8 9.8999 69.6 10.1999C69.4 10.4999 69.2999 10.8999 69.2999 11.2999C69.2999 11.6999 69.4 12.0999 69.6 12.3999C69.8 12.7999 70.0999 12.8999 70.4999 12.8999C70.8999 12.8999 71.1999 12.6999 71.3999 12.2999C71.5999 12.0999 71.7 11.6999 71.7 11.2999Z" fill="white"/>
<path d="M77.5999 13.5999H76.6999L76.5999 13.0999C76.2999 13.4999 75.7999 13.6999 75.2999 13.6999C74.8999 13.6999 74.4999 13.5999 74.2999 13.2999C74.0999 12.9999 73.8999 12.6999 73.8999 12.3999C73.8999 11.7999 74.0999 11.3999 74.5999 11.0999C75.0999 10.7999 75.6999 10.6999 76.5999 10.6999V10.5999C76.5999 9.9999 76.2999 9.6999 75.6999 9.6999C75.1999 9.6999 74.8999 9.7999 74.4999 9.9999L74.2999 9.2999C74.6999 8.9999 75.1999 8.8999 75.8999 8.8999C77.0999 8.8999 77.6999 9.4999 77.6999 10.7999V12.4999C77.5999 12.9999 77.5999 13.2999 77.5999 13.5999ZM76.5999 11.9999V11.2999C75.4999 11.2999 74.8999 11.5999 74.8999 12.1999C74.8999 12.3999 74.9999 12.5999 75.0999 12.6999C75.1999 12.7999 75.3999 12.8999 75.5999 12.8999C75.7999 12.8999 75.9999 12.7999 76.1999 12.6999C76.3999 12.5999 76.4999 12.3999 76.5999 12.1999C76.5999 12.1999 76.5999 12.0999 76.5999 11.9999Z" fill="white"/>
<path d="M83.4001 13.6H82.5001V12.9C82.2001 13.5 81.7001 13.7 81.0001 13.7C80.4001 13.7 80.0001 13.5 79.6001 13.1C79.2001 12.7 79.1001 12.1 79.1001 11.4C79.1001 10.7 79.3001 10.1 79.7001 9.6C80.1001 9.2 80.6001 9 81.1001 9C81.7001 9 82.1001 9.2 82.4001 9.6V7H83.4001V12.4C83.4001 12.8 83.4001 13.2 83.4001 13.6ZM82.4001 11.7V10.9C82.4001 10.8 82.4001 10.7 82.4001 10.6C82.3001 10.4 82.2001 10.2 82.0001 10C81.8001 9.8 81.6001 9.8 81.3001 9.8C80.9001 9.8 80.6001 10 80.4001 10.3C80.2001 10.6 80.1001 11 80.1001 11.5C80.1001 12 80.2001 12.3 80.4001 12.6C80.6001 12.9 80.9001 13.1 81.3001 13.1C81.6001 13.1 81.9001 13 82.1001 12.7C82.3001 12.3 82.4001 12 82.4001 11.7Z" fill="white"/>
<path d="M92.1001 11.2999C92.1001 11.9999 91.9001 12.5999 91.5001 12.9999C91.1001 13.4999 90.5001 13.6999 89.8001 13.6999C89.1001 13.6999 88.6001 13.4999 88.2001 12.9999C87.8001 12.5999 87.6001 11.9999 87.6001 11.2999C87.6001 10.5999 87.8001 9.9999 88.2001 9.5999C88.6001 9.0999 89.2001 8.8999 89.9001 8.8999C90.6001 8.8999 91.1001 9.0999 91.5001 9.5999C91.9001 9.9999 92.1001 10.5999 92.1001 11.2999ZM91.0001 11.2999C91.0001 10.8999 90.9001 10.4999 90.7001 10.1999C90.5001 9.7999 90.2001 9.6999 89.8001 9.6999C89.4001 9.6999 89.1001 9.8999 88.9001 10.1999C88.7001 10.4999 88.6001 10.8999 88.6001 11.2999C88.6001 11.6999 88.7001 12.0999 88.9001 12.3999C89.1001 12.7999 89.4001 12.8999 89.8001 12.8999C90.2001 12.8999 90.5001 12.6999 90.7001 12.2999C90.9001 12.0999 91.0001 11.6999 91.0001 11.2999Z" fill="white"/>
<path d="M97.6 13.5998H96.6V10.9998C96.6 10.1998 96.3 9.7998 95.7 9.7998C95.4 9.7998 95.2 9.89981 95 10.0998C94.8 10.2998 94.7 10.5998 94.7 10.8998V13.5998H93.7V10.2998C93.7 9.8998 93.7 9.49981 93.7 8.99981H94.6V9.69981C94.7 9.49981 94.9 9.29981 95.1 9.09981C95.4 8.89981 95.7 8.7998 96 8.7998C96.4 8.7998 96.8 8.89981 97.1 9.19981C97.5 9.49981 97.6 9.99981 97.6 10.6998V13.5998Z" fill="white"/>
<path d="M104.4 9.7999H103.3V11.9999C103.3 12.5999 103.5 12.7999 103.9 12.7999C104.1 12.7999 104.2 12.7999 104.4 12.7999V13.5999C104.2 13.6999 103.9 13.6999 103.6 13.6999C103.2 13.6999 102.9 13.5999 102.7 13.2999C102.5 13.0999 102.4 12.5999 102.4 12.0999V9.7999H101.7V8.9999H102.4V8.1999L103.4 7.8999V8.9999H104.5V9.7999H104.4Z" fill="white"/>
<path d="M109.8 13.5999H108.8V10.9999C108.8 10.1999 108.5 9.7999 107.9 9.7999C107.4 9.7999 107.1 9.9999 106.9 10.4999C106.9 10.5999 106.9 10.6999 106.9 10.8999V13.5999H105.9V6.8999H106.9V9.6999C107.2 9.1999 107.7 8.8999 108.3 8.8999C108.7 8.8999 109.1 8.9999 109.3 9.2999C109.6 9.5999 109.8 10.1999 109.8 10.7999V13.5999Z" fill="white"/>
<path d="M115.3 11.1C115.3 11.3 115.3 11.4 115.3 11.6H112.3C112.3 12.1 112.5 12.4 112.7 12.6C113 12.8 113.3 12.9 113.7 12.9C114.2 12.9 114.6 12.8 114.9 12.7L115.1 13.4C114.7 13.6 114.2 13.7 113.6 13.7C112.9 13.7 112.3 13.5 111.9 13.1C111.5 12.7 111.3 12.1 111.3 11.4C111.3 10.7 111.5 10.1 111.9 9.7C112.3 9.2 112.8 9 113.5 9C114.2 9 114.7 9.2 115 9.7C115.2 10 115.3 10.5 115.3 11.1ZM114.4 10.8C114.4 10.5 114.3 10.2 114.2 10C114 9.7 113.8 9.6 113.4 9.6C113.1 9.6 112.8 9.7 112.6 10C112.4 10.2 112.3 10.5 112.3 10.8H114.4Z" fill="white"/>
</svg>
