<svg width="24" height="24" viewBox="0 0 24 24" fill="none" xmlns="http://www.w3.org/2000/svg">
<path d="M22.5 7.125C22.5 7.02554 22.4605 6.93016 22.3902 6.85983C22.3198 6.78951 22.2245 6.75 22.125 6.75H10.125C10.0255 6.75 9.93016 6.78951 9.85983 6.85983C9.78951 6.93016 9.75 7.02554 9.75 7.125C9.75 7.22446 9.78951 7.31984 9.85983 7.39017C9.93016 7.46049 10.0255 7.5 10.125 7.5H10.5V9.75H10.125C10.0255 9.75 9.93016 9.78951 9.85983 9.85983C9.78951 9.93016 9.75 10.0255 9.75 10.125C9.75 10.2245 9.78951 10.3198 9.85983 10.3902C9.93016 10.4605 10.0255 10.5 10.125 10.5H22.125C22.2245 10.5 22.3198 10.4605 22.3902 10.3902C22.4605 10.3198 22.5 10.2245 22.5 10.125C22.5 10.0255 22.4605 9.93016 22.3902 9.85983C22.3198 9.78951 22.2245 9.75 22.125 9.75H20.4C20.3602 9.75 20.3221 9.7342 20.2939 9.70607C20.2658 9.67794 20.25 9.63978 20.25 9.6V7.65C20.25 7.5675 20.3175 7.5 20.4 7.5H22.125C22.2245 7.5 22.3198 7.46049 22.3902 7.39017C22.4605 7.31984 22.5 7.22446 22.5 7.125ZM13.5 7.65V9.6C13.5 9.63978 13.4842 9.67794 13.4561 9.70607C13.4279 9.7342 13.3898 9.75 13.35 9.75H11.4C11.3602 9.75 11.3221 9.7342 11.2939 9.70607C11.2658 9.67794 11.25 9.63978 11.25 9.6V7.65C11.25 7.5675 11.3175 7.5 11.4 7.5H13.35C13.4325 7.5 13.5 7.5675 13.5 7.65ZM14.25 7.575C14.25 7.55511 14.2579 7.53603 14.272 7.52197C14.286 7.5079 14.3051 7.5 14.325 7.5H16.425C16.4449 7.5 16.464 7.5079 16.478 7.52197C16.4921 7.53603 16.5 7.55511 16.5 7.575V9.6C16.5 9.63978 16.4842 9.67794 16.4561 9.70607C16.4279 9.7342 16.3898 9.75 16.35 9.75H14.4C14.3602 9.75 14.3221 9.7342 14.2939 9.70607C14.2658 9.67794 14.25 9.63978 14.25 9.6V7.575ZM19.5 7.65V9.6C19.5 9.63978 19.4842 9.67794 19.4561 9.70607C19.4279 9.7342 19.3898 9.75 19.35 9.75H17.4C17.3602 9.75 17.3221 9.7342 17.2939 9.70607C17.2658 9.67794 17.25 9.63978 17.25 9.6V7.65C17.25 7.5675 17.3175 7.5 17.4 7.5H19.35C19.4325 7.5 19.5 7.5675 19.5 7.65Z" fill="#D3D3D3"/>
<path d="M3.675 13.5002H1.7325L1.62 14.2502L12.06 15.0002L22.5 14.2502V11.7677C22.5 11.0664 21.93 10.5002 21.2325 10.5002H10.5V6.57768C10.5 5.84268 9.9 5.24268 9.165 5.24268H3.9075C3.3825 5.24268 2.94 5.62518 2.865 6.14268L2.7675 6.75018H3.675C4.125 6.75018 4.5 7.11768 4.5 7.57518V12.6752C4.5 13.1327 4.125 13.5002 3.675 13.5002ZM21.2325 20.2502H2.835C2.1 20.2502 1.5 19.6502 1.5 18.9152V15.6752H22.5V18.9827C22.5 19.6802 21.93 20.2502 21.2325 20.2502Z" fill="#F8312F"/>
<path d="M1.59 14.4075C1.5375 14.7375 1.5075 15.075 1.5 15.4125V15.75H22.5V14.25H1.6125L1.59 14.4075Z" fill="#F4F4F4"/>
<path d="M7.8075 4.5H5.6925C5.4525 4.5 5.25 4.695 5.25 4.9425V5.25H8.25V4.9425C8.25 4.695 8.055 4.5 7.8075 4.5Z" fill="#9B9B9B"/>
<path d="M7.5 3.75C7.5 3.3375 7.1625 3 6.75 3C6.3375 3 6 3.3375 6 3.75V4.5H7.5V3.75Z" fill="#F92F60"/>
<path d="M9 19.875C9 20.5712 8.72344 21.2389 8.23116 21.7312C7.73887 22.2234 7.07119 22.5 6.375 22.5C5.67881 22.5 5.01113 22.2234 4.51884 21.7312C4.02656 21.2389 3.75 20.5712 3.75 19.875C3.75 19.1788 4.02656 18.5111 4.51884 18.0188C5.01113 17.5266 5.67881 17.25 6.375 17.25C7.07119 17.25 7.73887 17.5266 8.23116 18.0188C8.72344 18.5111 9 19.1788 9 19.875ZM20.25 19.875C20.25 20.5712 19.9734 21.2389 19.4812 21.7312C18.9889 22.2234 18.3212 22.5 17.625 22.5C16.9288 22.5 16.2611 22.2234 15.7688 21.7312C15.2766 21.2389 15 20.5712 15 19.875C15 19.1788 15.2766 18.5111 15.7688 18.0188C16.2611 17.5266 16.9288 17.25 17.625 17.25C18.3212 17.25 18.9889 17.5266 19.4812 18.0188C19.9734 18.5111 20.25 19.1788 20.25 19.875Z" fill="#321B41"/>
<path d="M7.5 19.875C7.5 20.1734 7.38147 20.4595 7.1705 20.6705C6.95952 20.8815 6.67337 21 6.375 21C6.07663 21 5.79048 20.8815 5.5795 20.6705C5.36853 20.4595 5.25 20.1734 5.25 19.875C5.25 19.5766 5.36853 19.2905 5.5795 19.0795C5.79048 18.8685 6.07663 18.75 6.375 18.75C6.67337 18.75 6.95952 18.8685 7.1705 19.0795C7.38147 19.2905 7.5 19.5766 7.5 19.875ZM18.75 19.875C18.75 20.0227 18.7209 20.169 18.6644 20.3055C18.6078 20.442 18.525 20.566 18.4205 20.6705C18.316 20.775 18.192 20.8578 18.0555 20.9144C17.919 20.9709 17.7727 21 17.625 21C17.4773 21 17.331 20.9709 17.1945 20.9144C17.058 20.8578 16.934 20.775 16.8295 20.6705C16.725 20.566 16.6422 20.442 16.5856 20.3055C16.5291 20.169 16.5 20.0227 16.5 19.875C16.5 19.5766 16.6185 19.2905 16.8295 19.0795C17.0405 18.8685 17.3266 18.75 17.625 18.75C17.9234 18.75 18.2095 18.8685 18.4205 19.0795C18.6315 19.2905 18.75 19.5766 18.75 19.875Z" fill="#F4F4F4"/>
<path d="M4.50004 12.675C4.50004 13.1325 4.12504 13.5 3.67504 13.5H1.73254L2.76754 6.75H3.67504C4.12504 6.75 4.50004 7.1175 4.50004 7.575V12.675ZM6.00004 6.75C5.80113 6.75 5.61037 6.82902 5.46971 6.96967C5.32906 7.11032 5.25004 7.30109 5.25004 7.5V12.75C5.25004 12.9489 5.32906 13.1397 5.46971 13.2803C5.61037 13.421 5.80113 13.5 6.00004 13.5H8.25004C8.44896 13.5 8.63972 13.421 8.78037 13.2803C8.92103 13.1397 9.00004 12.9489 9.00004 12.75V7.5C9.00004 7.30109 8.92103 7.11032 8.78037 6.96967C8.63972 6.82902 8.44896 6.75 8.25004 6.75H6.00004Z" fill="#26C9FC"/>
<path d="M2.25 17.25C2.25 17.0511 2.17098 16.8603 2.03033 16.7197C1.88968 16.579 1.69891 16.5 1.5 16.5V18.75C1.69891 18.75 1.88968 18.671 2.03033 18.5303C2.17098 18.3897 2.25 18.1989 2.25 18V17.25ZM21.75 16.5C21.5511 16.5 21.3603 16.579 21.2197 16.7197C21.079 16.8603 21 17.0511 21 17.25C21 17.4489 21.079 17.6397 21.2197 17.7803C21.3603 17.921 21.5511 18 21.75 18H22.5V16.5H21.75Z" fill="#FCD53F"/>
</svg>
