<svg width="24" height="24" viewBox="0 0 24 24" fill="none" xmlns="http://www.w3.org/2000/svg">
<g clip-path="url(#clip0_43_613)">
<path d="M1.401 6.18355L11.8323 0.981076C11.8807 0.956937 11.934 0.94436 11.9881 0.944336C12.0422 0.944312 12.0955 0.95684 12.1439 0.980935L22.5961 6.1834C22.9264 6.34784 22.8094 6.84551 22.4404 6.84551H1.55691C1.18805 6.84551 1.07091 6.34817 1.401 6.18355ZM22.6312 7.23153H1.36875C1.27924 7.23153 1.1934 7.26709 1.1301 7.33038C1.06681 7.39367 1.03125 7.47952 1.03125 7.56903V10.319C1.03125 10.4085 1.06681 10.4944 1.1301 10.5576C1.1934 10.6209 1.27924 10.6565 1.36875 10.6565H2.08594V20.9418C2.08594 21.3146 2.38814 21.6168 2.76094 21.6168H21.2391C21.6119 21.6168 21.9141 21.3146 21.9141 20.9418V10.6565H22.6312C22.7208 10.6565 22.8066 10.6209 22.8699 10.5576C22.9332 10.4944 22.9688 10.4085 22.9688 10.319V7.56903C22.9688 7.47952 22.9332 7.39367 22.8699 7.33038C22.8066 7.26709 22.7208 7.23153 22.6312 7.23153Z" fill="#DADBDC"/>
<path d="M6.51531 20.9417H4.38817V9.60945H6.51531V20.9417ZM19.5906 9.60945H17.4634V20.9417H19.5906V9.60945ZM22.9513 6.35806L12.1711 0.992321C12.1141 0.963949 12.0513 0.949194 11.9876 0.949219C11.9239 0.949243 11.8611 0.964046 11.8042 0.992461L1.04551 6.3582C0.656868 6.55202 0.794821 7.13763 1.22912 7.13763H1.33365C1.39718 7.13763 1.45985 7.12291 1.51674 7.09465L11.8179 1.97468C11.8745 1.94652 11.9369 1.93181 12.0002 1.93169C12.0634 1.93156 12.1259 1.94604 12.1826 1.97398L22.5863 7.09535C22.6428 7.12318 22.705 7.13765 22.768 7.13763C23.2024 7.13768 23.3402 6.55165 22.9513 6.35806Z" fill="#767777"/>
<path d="M23.2641 6.42725H0.735937C0.646427 6.42725 0.560583 6.4628 0.497289 6.5261C0.433995 6.58939 0.398438 6.67524 0.398438 6.76475V7.69798C0.398438 7.78749 0.433995 7.87334 0.497289 7.93663C0.560583 7.99992 0.646427 8.03548 0.735937 8.03548H23.2641C23.3536 8.03548 23.4394 7.99992 23.5027 7.93663C23.566 7.87334 23.6016 7.78749 23.6016 7.69798V6.76475C23.6016 6.67524 23.566 6.58939 23.5027 6.5261C23.4394 6.4628 23.3536 6.42725 23.2641 6.42725ZM23.2641 9.57514H0.735937C0.646427 9.57514 0.560583 9.61069 0.497289 9.67399C0.433995 9.73728 0.398438 9.82313 0.398438 9.91264V10.8459C0.398438 10.9354 0.433995 11.0212 0.497289 11.0845C0.560583 11.1478 0.646427 11.1834 0.735937 11.1834H8.4023V20.9416H1.96181C1.74038 20.9416 1.53525 21.0581 1.42177 21.2483L0.567469 22.6801C0.317344 23.0993 0.619406 23.6312 1.10752 23.6312H22.8925C23.3806 23.6312 23.6827 23.0993 23.4325 22.6801L22.5782 21.2483C22.5225 21.1548 22.4434 21.0774 22.3487 21.0236C22.254 20.9699 22.147 20.9416 22.0382 20.9416H15.5765V11.1834H23.2641C23.3536 11.1834 23.4394 11.1478 23.5027 11.0845C23.566 11.0212 23.6016 10.9354 23.6016 10.8459V9.91264C23.6016 9.82313 23.566 9.73728 23.5027 9.67399C23.4394 9.61069 23.3536 9.57514 23.2641 9.57514Z" fill="#999999"/>
<path d="M8.40149 20.9468L15.5734 20.9375L15.5757 22.6887L8.40379 22.6981L8.40149 20.9468Z" fill="#C8CACB"/>
<path d="M16.63 23.631H7.34875V22.6622C7.34875 22.5727 7.38431 22.4869 7.44761 22.4236C7.5109 22.3603 7.59674 22.3247 7.68626 22.3247H16.2925C16.382 22.3247 16.4679 22.3603 16.5312 22.4236C16.5944 22.4869 16.63 22.5727 16.63 22.6622V23.631Z" fill="#EBECED"/>
<path d="M14.5108 20.9414H9.4679V16.3329C9.4679 14.7845 10.5968 13.5293 11.9894 13.5293C13.382 13.5293 14.5109 14.7845 14.5109 16.3329V20.9414H14.5108Z" fill="#2B3B47"/>
</g>
<defs>
<clipPath id="clip0_43_613">
<rect width="24" height="24" fill="white"/>
</clipPath>
</defs>
</svg>
