<svg width="24" height="24" viewBox="0 0 24 24" fill="none" xmlns="http://www.w3.org/2000/svg">
<path d="M2.89648 22.4509H21.1035C20.754 17.7289 16.8112 14.0059 12 14.0059C7.18874 14.0059 3.24598 17.7296 2.89648 22.4516V22.4509Z" fill="#3FB3FF"/>
<path d="M2.89648 22.4509H21.1035C20.754 17.7289 16.8112 14.0059 12 14.0059C7.18874 14.0059 3.24598 17.7296 2.89648 22.4516V22.4509Z" fill="url(#paint0_radial_43_498)"/>
<path d="M2.89648 22.4509H21.1035C20.754 17.7289 16.8112 14.0059 12 14.0059C7.18874 14.0059 3.24598 17.7296 2.89648 22.4516V22.4509Z" fill="url(#paint1_radial_43_498)"/>
<path d="M2.89648 22.4509H21.1035C20.754 17.7289 16.8112 14.0059 12 14.0059C7.18874 14.0059 3.24598 17.7296 2.89648 22.4516V22.4509Z" fill="url(#paint2_radial_43_498)"/>
<path d="M2.89648 22.4509H21.1035C20.754 17.7289 16.8112 14.0059 12 14.0059C7.18874 14.0059 3.24598 17.7296 2.89648 22.4516V22.4509Z" fill="url(#paint3_linear_43_498)"/>
<g filter="url(#filter0_f_43_498)">
<path d="M9.4845 14.7642L10.0567 17.6142C10.0666 17.6666 10.0899 17.7155 10.1244 17.7562C10.1588 17.7968 10.2033 17.8278 10.2534 17.8461C10.3034 17.8644 10.3574 17.8694 10.41 17.8606C10.4626 17.8517 10.5119 17.8293 10.5532 17.7957L10.8922 17.5227L11.343 18.4257C11.373 18.4849 11.433 18.5217 11.499 18.5217H12.2647C12.3315 18.5217 12.3922 18.4842 12.4222 18.4242L12.8617 17.5339L13.1895 17.7957C13.2308 17.8292 13.2801 17.8514 13.3326 17.8601C13.3851 17.8689 13.4389 17.8638 13.4889 17.8456C13.5388 17.8273 13.5832 17.7963 13.6176 17.7558C13.652 17.7152 13.6753 17.6664 13.6852 17.6142L14.2582 14.7642H9.4845Z" fill="#2389D6"/>
</g>
<path d="M6.04123 22.4505H2.89648C2.98523 21.256 3.30867 20.0908 3.84829 19.0215C4.3879 17.9521 5.1331 16.9997 6.04123 16.2188V22.4505Z" fill="url(#paint4_radial_43_498)"/>
<path d="M6.04123 22.4505H2.89648C2.98523 21.256 3.30867 20.0908 3.84829 19.0215C4.3879 17.9521 5.1331 16.9997 6.04123 16.2188V22.4505Z" fill="url(#paint5_radial_43_498)"/>
<path d="M17.9587 22.4505H21.1035C21.0147 21.256 20.6913 20.0908 20.1517 19.0215C19.6121 17.9521 18.8669 16.9997 17.9587 16.2188V22.4505Z" fill="url(#paint6_radial_43_498)"/>
<path d="M17.9587 22.4505H21.1035C21.0147 21.256 20.6913 20.0908 20.1517 19.0215C19.6121 17.9521 18.8669 16.9997 17.9587 16.2188V22.4505Z" fill="url(#paint7_radial_43_498)"/>
<g filter="url(#filter1_i_43_498)">
<path d="M12.5617 18.3526C12.5462 18.3839 12.5223 18.4103 12.4926 18.4287C12.4629 18.4471 12.4287 18.4569 12.3937 18.4569H11.571C11.5362 18.4567 11.5021 18.4469 11.4726 18.4285C11.443 18.4101 11.4192 18.3838 11.4037 18.3526L10.4692 16.4844H13.4842L12.5617 18.3519V18.3526Z" fill="url(#paint8_radial_43_498)"/>
<path d="M12.5617 18.3526C12.5462 18.3839 12.5223 18.4103 12.4926 18.4287C12.4629 18.4471 12.4287 18.4569 12.3937 18.4569H11.571C11.5362 18.4567 11.5021 18.4469 11.4726 18.4285C11.443 18.4101 11.4192 18.3838 11.4037 18.3526L10.4692 16.4844H13.4842L12.5617 18.3519V18.3526Z" fill="url(#paint9_radial_43_498)"/>
<path d="M12.5617 18.3526C12.5462 18.3839 12.5223 18.4103 12.4926 18.4287C12.4629 18.4471 12.4287 18.4569 12.3937 18.4569H11.571C11.5362 18.4567 11.5021 18.4469 11.4726 18.4285C11.443 18.4101 11.4192 18.3838 11.4037 18.3526L10.4692 16.4844H13.4842L12.5617 18.3519V18.3526Z" fill="url(#paint10_linear_43_498)"/>
<path d="M12.5617 18.3526C12.5462 18.3839 12.5223 18.4103 12.4926 18.4287C12.4629 18.4471 12.4287 18.4569 12.3937 18.4569H11.571C11.5362 18.4567 11.5021 18.4469 11.4726 18.4285C11.443 18.4101 11.4192 18.3838 11.4037 18.3526L10.4692 16.4844H13.4842L12.5617 18.3519V18.3526Z" fill="url(#paint11_linear_43_498)"/>
</g>
<path d="M13.1827 22.4508L12.4874 18.5493C12.4827 18.5235 12.4691 18.5001 12.449 18.4833C12.4288 18.4664 12.4035 18.4571 12.3772 18.457H11.5687C11.5428 18.457 11.5176 18.466 11.4975 18.4824C11.4774 18.4988 11.4636 18.5216 11.4584 18.547L10.6897 22.4508H13.1827Z" fill="url(#paint12_radial_43_498)"/>
<path d="M13.1827 22.4508L12.4874 18.5493C12.4827 18.5235 12.4691 18.5001 12.449 18.4833C12.4288 18.4664 12.4035 18.4571 12.3772 18.457H11.5687C11.5428 18.457 11.5176 18.466 11.4975 18.4824C11.4774 18.4988 11.4636 18.5216 11.4584 18.547L10.6897 22.4508H13.1827Z" fill="url(#paint13_linear_43_498)"/>
<path d="M13.1827 22.4508L12.4874 18.5493C12.4827 18.5235 12.4691 18.5001 12.449 18.4833C12.4288 18.4664 12.4035 18.4571 12.3772 18.457H11.5687C11.5428 18.457 11.5176 18.466 11.4975 18.4824C11.4774 18.4988 11.4636 18.5216 11.4584 18.547L10.6897 22.4508H13.1827Z" fill="url(#paint14_linear_43_498)"/>
<g filter="url(#filter2_i_43_498)">
<path d="M12.0172 15.9069V16.4994L10.5547 17.6769C10.5104 17.7129 10.4574 17.7369 10.401 17.7463C10.3446 17.7557 10.2867 17.7504 10.2331 17.7307C10.1794 17.7111 10.1317 17.6778 10.0948 17.6342C10.0578 17.5905 10.0328 17.5381 10.0222 17.4819L9.40723 14.4219L12.0172 15.9069Z" fill="#73C0FF"/>
<path d="M12.0172 15.9069V16.4994L10.5547 17.6769C10.5104 17.7129 10.4574 17.7369 10.401 17.7463C10.3446 17.7557 10.2867 17.7504 10.2331 17.7307C10.1794 17.7111 10.1317 17.6778 10.0948 17.6342C10.0578 17.5905 10.0328 17.5381 10.0222 17.4819L9.40723 14.4219L12.0172 15.9069Z" fill="url(#paint15_radial_43_498)"/>
</g>
<path d="M12.0172 15.9069V16.4994L10.5547 17.6769C10.5104 17.7129 10.4574 17.7369 10.401 17.7463C10.3446 17.7557 10.2867 17.7504 10.2331 17.7307C10.1794 17.7111 10.1317 17.6778 10.0948 17.6342C10.0578 17.5905 10.0328 17.5381 10.0222 17.4819L9.40723 14.4219L12.0172 15.9069Z" fill="url(#paint16_radial_43_498)"/>
<g filter="url(#filter3_i_43_498)">
<path d="M11.9092 15.9069V16.4994L13.3867 17.6769C13.5817 17.8344 13.8667 17.7294 13.9192 17.4819L14.5342 14.4219L11.9092 15.9069Z" fill="#73C0FF"/>
<path d="M11.9092 15.9069V16.4994L13.3867 17.6769C13.5817 17.8344 13.8667 17.7294 13.9192 17.4819L14.5342 14.4219L11.9092 15.9069Z" fill="url(#paint17_linear_43_498)"/>
<path d="M11.9092 15.9069V16.4994L13.3867 17.6769C13.5817 17.8344 13.8667 17.7294 13.9192 17.4819L14.5342 14.4219L11.9092 15.9069Z" fill="url(#paint18_radial_43_498)"/>
</g>
<path d="M11.9092 15.9069V16.4994L13.3867 17.6769C13.5817 17.8344 13.8667 17.7294 13.9192 17.4819L14.5342 14.4219L11.9092 15.9069Z" fill="url(#paint19_radial_43_498)"/>
<g filter="url(#filter4_i_43_498)">
<path d="M10.3049 14.874C10.4624 15.3015 10.9139 16.0605 11.9594 16.5413C13.0499 15.9788 13.4099 15.3023 13.5682 14.874L11.9594 14.625L10.3042 14.874H10.3049Z" fill="url(#paint20_radial_43_498)"/>
<path d="M10.3049 14.874C10.4624 15.3015 10.9139 16.0605 11.9594 16.5413C13.0499 15.9788 13.4099 15.3023 13.5682 14.874L11.9594 14.625L10.3042 14.874H10.3049Z" fill="url(#paint21_radial_43_498)"/>
</g>
<g filter="url(#filter5_ii_43_498)">
<path d="M14.1225 18.6978C14.1225 18.5983 14.162 18.5029 14.2323 18.4326C14.3026 18.3623 14.398 18.3228 14.4975 18.3228H15.8565C15.9559 18.3228 16.0513 18.3623 16.1216 18.4326C16.1919 18.5029 16.2315 18.5983 16.2315 18.6978V19.993C16.2315 20.2728 16.1203 20.5411 15.9225 20.7389C15.7247 20.9367 15.4563 21.0479 15.1766 21.0479C14.8968 21.0479 14.6285 20.9367 14.4307 20.7389C14.2328 20.5411 14.1217 20.2728 14.1217 19.993V18.6978H14.1225Z" fill="url(#paint22_linear_43_498)"/>
</g>
<g filter="url(#filter6_ii_43_498)">
<path d="M9.70872 19.4829H6.81672C6.75459 19.4829 6.70422 19.5333 6.70422 19.5954V20.2959C6.70422 20.358 6.75459 20.4084 6.81672 20.4084H9.70872C9.77086 20.4084 9.82122 20.358 9.82122 20.2959V19.5954C9.82122 19.5333 9.77086 19.4829 9.70872 19.4829Z" fill="url(#paint23_linear_43_498)"/>
</g>
<g filter="url(#filter7_i_43_498)">
<path d="M7.87795 11.0787C8.67241 11.0787 9.31645 10.4346 9.31645 9.64016C9.31645 8.8457 8.67241 8.20166 7.87795 8.20166C7.08349 8.20166 6.43945 8.8457 6.43945 9.64016C6.43945 10.4346 7.08349 11.0787 7.87795 11.0787Z" fill="url(#paint24_radial_43_498)"/>
</g>
<path d="M7.87795 11.0787C8.67241 11.0787 9.31645 10.4346 9.31645 9.64016C9.31645 8.8457 8.67241 8.20166 7.87795 8.20166C7.08349 8.20166 6.43945 8.8457 6.43945 9.64016C6.43945 10.4346 7.08349 11.0787 7.87795 11.0787Z" fill="url(#paint25_radial_43_498)"/>
<g filter="url(#filter8_f_43_498)">
<path d="M7.878 10.4972C8.35145 10.4972 8.73525 10.1134 8.73525 9.63996C8.73525 9.16652 8.35145 8.78271 7.878 8.78271C7.40456 8.78271 7.02075 9.16652 7.02075 9.63996C7.02075 10.1134 7.40456 10.4972 7.878 10.4972Z" fill="url(#paint26_linear_43_498)"/>
</g>
<g filter="url(#filter9_i_43_498)">
<path d="M16.0755 11.0787C16.8699 11.0787 17.514 10.4346 17.514 9.64016C17.514 8.8457 16.8699 8.20166 16.0755 8.20166C15.281 8.20166 14.637 8.8457 14.637 9.64016C14.637 10.4346 15.281 11.0787 16.0755 11.0787Z" fill="url(#paint27_linear_43_498)"/>
<path d="M16.0755 11.0787C16.8699 11.0787 17.514 10.4346 17.514 9.64016C17.514 8.8457 16.8699 8.20166 16.0755 8.20166C15.281 8.20166 14.637 8.8457 14.637 9.64016C14.637 10.4346 15.281 11.0787 16.0755 11.0787Z" fill="url(#paint28_radial_43_498)"/>
</g>
<g filter="url(#filter10_f_43_498)">
<path d="M16.0755 10.4972C16.549 10.4972 16.9328 10.1134 16.9328 9.63996C16.9328 9.16652 16.549 8.78271 16.0755 8.78271C15.6021 8.78271 15.2183 9.16652 15.2183 9.63996C15.2183 10.1134 15.6021 10.4972 16.0755 10.4972Z" fill="#A57C70"/>
<path d="M16.0755 10.4972C16.549 10.4972 16.9328 10.1134 16.9328 9.63996C16.9328 9.16652 16.549 8.78271 16.0755 8.78271C15.6021 8.78271 15.2183 9.16652 15.2183 9.63996C15.2183 10.1134 15.6021 10.4972 16.0755 10.4972Z" fill="url(#paint29_radial_43_498)"/>
<path d="M16.0755 10.4972C16.549 10.4972 16.9328 10.1134 16.9328 9.63996C16.9328 9.16652 16.549 8.78271 16.0755 8.78271C15.6021 8.78271 15.2183 9.16652 15.2183 9.63996C15.2183 10.1134 15.6021 10.4972 16.0755 10.4972Z" fill="url(#paint30_radial_43_498)"/>
</g>
<g filter="url(#filter11_ii_43_498)">
<path d="M7.57493 9.11196C7.58891 9.1129 7.60291 9.1134 7.61693 9.11346C7.61693 9.11346 7.57043 8.37846 7.52393 7.87221C7.52393 7.64271 7.61693 7.36671 7.80143 7.22871L7.94018 7.09071C8.17118 6.90696 8.26343 6.63171 8.26343 6.35571V5.62071C8.26343 5.39046 8.40218 5.20671 8.63318 5.16096C9.18818 5.02296 10.3432 4.79346 12.0082 4.79346C13.6717 4.79346 14.8282 5.02296 15.3824 5.16096C15.5669 5.20596 15.7522 5.39046 15.7522 5.61996V6.35496C15.7522 6.63171 15.8909 6.90696 16.0754 7.09071C16.5082 7.39446 16.4812 7.56096 16.4452 7.91796C16.3994 8.37771 16.3529 9.15921 16.3529 9.15921H16.3679L16.1392 12.5702C16.0012 14.095 14.8027 15.1577 13.3732 15.1577H10.6057C9.13118 15.1577 7.97843 14.095 7.83968 12.5702L7.57493 9.11271V9.11196Z" fill="url(#paint31_radial_43_498)"/>
<path d="M7.57493 9.11196C7.58891 9.1129 7.60291 9.1134 7.61693 9.11346C7.61693 9.11346 7.57043 8.37846 7.52393 7.87221C7.52393 7.64271 7.61693 7.36671 7.80143 7.22871L7.94018 7.09071C8.17118 6.90696 8.26343 6.63171 8.26343 6.35571V5.62071C8.26343 5.39046 8.40218 5.20671 8.63318 5.16096C9.18818 5.02296 10.3432 4.79346 12.0082 4.79346C13.6717 4.79346 14.8282 5.02296 15.3824 5.16096C15.5669 5.20596 15.7522 5.39046 15.7522 5.61996V6.35496C15.7522 6.63171 15.8909 6.90696 16.0754 7.09071C16.5082 7.39446 16.4812 7.56096 16.4452 7.91796C16.3994 8.37771 16.3529 9.15921 16.3529 9.15921H16.3679L16.1392 12.5702C16.0012 14.095 14.8027 15.1577 13.3732 15.1577H10.6057C9.13118 15.1577 7.97843 14.095 7.83968 12.5702L7.57493 9.11271V9.11196Z" fill="url(#paint32_radial_43_498)"/>
</g>
<path d="M7.52393 7.87221C7.52393 7.64271 7.61693 7.36671 7.80143 7.22871L7.94018 7.09071C8.17118 6.90696 8.26343 6.63171 8.26343 6.35571V5.62071C8.26343 5.39046 8.40218 5.20671 8.63318 5.16096C9.18818 5.02296 10.3432 4.79346 12.0082 4.79346C13.6717 4.79346 14.8282 5.02296 15.3824 5.16096C15.5669 5.20596 15.7522 5.39046 15.7522 5.61996V6.35496C15.7522 6.63171 15.8909 6.90696 16.0754 7.09071C16.5082 7.39446 16.4812 7.56096 16.4452 7.91796C16.3994 8.37771 16.3529 9.15921 16.3529 9.15921H16.3679L16.1392 12.5702C16.0012 14.095 14.8027 15.1577 13.3732 15.1577H10.6057C9.13118 15.1577 7.97843 14.095 7.83968 12.5702C7.71968 11.005 7.66718 9.43521 7.52468 7.87221H7.52393Z" fill="url(#paint33_linear_43_498)"/>
<path d="M7.52393 7.87221C7.52393 7.64271 7.61693 7.36671 7.80143 7.22871L7.94018 7.09071C8.17118 6.90696 8.26343 6.63171 8.26343 6.35571V5.62071C8.26343 5.39046 8.40218 5.20671 8.63318 5.16096C9.18818 5.02296 10.3432 4.79346 12.0082 4.79346C13.6717 4.79346 14.8282 5.02296 15.3824 5.16096C15.5669 5.20596 15.7522 5.39046 15.7522 5.61996V6.35496C15.7522 6.63171 15.8909 6.90696 16.0754 7.09071C16.5082 7.39446 16.4812 7.56096 16.4452 7.91796C16.3994 8.37771 16.3529 9.15921 16.3529 9.15921H16.3679L16.1392 12.5702C16.0012 14.095 14.8027 15.1577 13.3732 15.1577H10.6057C9.13118 15.1577 7.97843 14.095 7.83968 12.5702C7.71968 11.005 7.66718 9.43521 7.52468 7.87221H7.52393Z" fill="url(#paint34_radial_43_498)"/>
<path d="M7.52393 7.87221C7.52393 7.64271 7.61693 7.36671 7.80143 7.22871L7.94018 7.09071C8.17118 6.90696 8.26343 6.63171 8.26343 6.35571V5.62071C8.26343 5.39046 8.40218 5.20671 8.63318 5.16096C9.18818 5.02296 10.3432 4.79346 12.0082 4.79346C13.6717 4.79346 14.8282 5.02296 15.3824 5.16096C15.5669 5.20596 15.7522 5.39046 15.7522 5.61996V6.35496C15.7522 6.63171 15.8909 6.90696 16.0754 7.09071C16.5082 7.39446 16.4812 7.56096 16.4452 7.91796C16.3994 8.37771 16.3529 9.15921 16.3529 9.15921H16.3679L16.1392 12.5702C16.0012 14.095 14.8027 15.1577 13.3732 15.1577H10.6057C9.13118 15.1577 7.97843 14.095 7.83968 12.5702C7.71968 11.005 7.66718 9.43521 7.52468 7.87221H7.52393Z" fill="url(#paint35_radial_43_498)"/>
<path d="M7.52393 7.87221C7.52393 7.64271 7.61693 7.36671 7.80143 7.22871L7.94018 7.09071C8.17118 6.90696 8.26343 6.63171 8.26343 6.35571V5.62071C8.26343 5.39046 8.40218 5.20671 8.63318 5.16096C9.18818 5.02296 10.3432 4.79346 12.0082 4.79346C13.6717 4.79346 14.8282 5.02296 15.3824 5.16096C15.5669 5.20596 15.7522 5.39046 15.7522 5.61996V6.35496C15.7522 6.63171 15.8909 6.90696 16.0754 7.09071C16.5082 7.39446 16.4812 7.56096 16.4452 7.91796C16.3994 8.37771 16.3529 9.15921 16.3529 9.15921H16.3679L16.1392 12.5702C16.0012 14.095 14.8027 15.1577 13.3732 15.1577H10.6057C9.13118 15.1577 7.97843 14.095 7.83968 12.5702C7.71968 11.005 7.66718 9.43521 7.52468 7.87221H7.52393Z" fill="url(#paint36_radial_43_498)"/>
<path d="M7.52393 7.87221C7.52393 7.64271 7.61693 7.36671 7.80143 7.22871L7.94018 7.09071C8.17118 6.90696 8.26343 6.63171 8.26343 6.35571V5.62071C8.26343 5.39046 8.40218 5.20671 8.63318 5.16096C9.18818 5.02296 10.3432 4.79346 12.0082 4.79346C13.6717 4.79346 14.8282 5.02296 15.3824 5.16096C15.5669 5.20596 15.7522 5.39046 15.7522 5.61996V6.35496C15.7522 6.63171 15.8909 6.90696 16.0754 7.09071C16.5082 7.39446 16.4812 7.56096 16.4452 7.91796C16.3994 8.37771 16.3529 9.15921 16.3529 9.15921H16.3679L16.1392 12.5702C16.0012 14.095 14.8027 15.1577 13.3732 15.1577H10.6057C9.13118 15.1577 7.97843 14.095 7.83968 12.5702C7.71968 11.005 7.66718 9.43521 7.52468 7.87221H7.52393Z" fill="url(#paint37_radial_43_498)"/>
<path d="M7.52393 7.87221C7.52393 7.64271 7.61693 7.36671 7.80143 7.22871L7.94018 7.09071C8.17118 6.90696 8.26343 6.63171 8.26343 6.35571V5.62071C8.26343 5.39046 8.40218 5.20671 8.63318 5.16096C9.18818 5.02296 10.3432 4.79346 12.0082 4.79346C13.6717 4.79346 14.8282 5.02296 15.3824 5.16096C15.5669 5.20596 15.7522 5.39046 15.7522 5.61996V6.35496C15.7522 6.63171 15.8909 6.90696 16.0754 7.09071C16.5082 7.39446 16.4812 7.56096 16.4452 7.91796C16.3994 8.37771 16.3529 9.15921 16.3529 9.15921H16.3679L16.1392 12.5702C16.0012 14.095 14.8027 15.1577 13.3732 15.1577H10.6057C9.13118 15.1577 7.97843 14.095 7.83968 12.5702C7.71968 11.005 7.66718 9.43521 7.52468 7.87221H7.52393Z" fill="url(#paint38_radial_43_498)"/>
<path d="M7.52393 7.87221C7.52393 7.64271 7.61693 7.36671 7.80143 7.22871L7.94018 7.09071C8.17118 6.90696 8.26343 6.63171 8.26343 6.35571V5.62071C8.26343 5.39046 8.40218 5.20671 8.63318 5.16096C9.18818 5.02296 10.3432 4.79346 12.0082 4.79346C13.6717 4.79346 14.8282 5.02296 15.3824 5.16096C15.5669 5.20596 15.7522 5.39046 15.7522 5.61996V6.35496C15.7522 6.63171 15.8909 6.90696 16.0754 7.09071C16.5082 7.39446 16.4812 7.56096 16.4452 7.91796C16.3994 8.37771 16.3529 9.15921 16.3529 9.15921H16.3679L16.1392 12.5702C16.0012 14.095 14.8027 15.1577 13.3732 15.1577H10.6057C9.13118 15.1577 7.97843 14.095 7.83968 12.5702C7.71968 11.005 7.66718 9.43521 7.52468 7.87221H7.52393Z" fill="url(#paint39_radial_43_498)"/>
<path d="M7.52393 7.87221C7.52393 7.64271 7.61693 7.36671 7.80143 7.22871L7.94018 7.09071C8.17118 6.90696 8.26343 6.63171 8.26343 6.35571V5.62071C8.26343 5.39046 8.40218 5.20671 8.63318 5.16096C9.18818 5.02296 10.3432 4.79346 12.0082 4.79346C13.6717 4.79346 14.8282 5.02296 15.3824 5.16096C15.5669 5.20596 15.7522 5.39046 15.7522 5.61996V6.35496C15.7522 6.63171 15.8909 6.90696 16.0754 7.09071C16.5082 7.39446 16.4812 7.56096 16.4452 7.91796C16.3994 8.37771 16.3529 9.15921 16.3529 9.15921H16.3679L16.1392 12.5702C16.0012 14.095 14.8027 15.1577 13.3732 15.1577H10.6057C9.13118 15.1577 7.97843 14.095 7.83968 12.5702C7.71968 11.005 7.66718 9.43521 7.52468 7.87221H7.52393Z" fill="url(#paint40_radial_43_498)"/>
<path d="M7.52393 7.87221C7.52393 7.64271 7.61693 7.36671 7.80143 7.22871L7.94018 7.09071C8.17118 6.90696 8.26343 6.63171 8.26343 6.35571V5.62071C8.26343 5.39046 8.40218 5.20671 8.63318 5.16096C9.18818 5.02296 10.3432 4.79346 12.0082 4.79346C13.6717 4.79346 14.8282 5.02296 15.3824 5.16096C15.5669 5.20596 15.7522 5.39046 15.7522 5.61996V6.35496C15.7522 6.63171 15.8909 6.90696 16.0754 7.09071C16.5082 7.39446 16.4812 7.56096 16.4452 7.91796C16.3994 8.37771 16.3529 9.15921 16.3529 9.15921H16.3679L16.1392 12.5702C16.0012 14.095 14.8027 15.1577 13.3732 15.1577H10.6057C9.13118 15.1577 7.97843 14.095 7.83968 12.5702C7.71968 11.005 7.66718 9.43521 7.52468 7.87221H7.52393Z" fill="url(#paint41_radial_43_498)"/>
<g filter="url(#filter12_i_43_498)">
<path d="M16.1219 4.05788L16.4917 4.24163C17.1389 4.56338 17.5087 5.29913 17.3692 6.07988L16.8614 8.69963C16.8164 8.97038 16.6372 9.15263 16.3687 9.15938H16.3529C16.3529 9.15938 16.3994 8.37788 16.4452 7.91813C16.4827 7.54538 16.4174 7.43138 16.0754 7.09088C15.8909 6.90713 15.7522 6.63188 15.7522 6.35588V5.62088C15.7522 5.39063 15.5669 5.20688 15.3824 5.16113C14.8274 5.02313 13.6724 4.79363 12.0074 4.79363C10.3439 4.79363 9.18818 5.02313 8.63318 5.16113C8.52664 5.18023 8.43061 5.23722 8.36279 5.32158C8.29497 5.40594 8.25995 5.51197 8.26418 5.62013V6.35513C8.26418 6.63188 8.17118 6.90713 7.94018 7.09088L7.80143 7.22888C7.61693 7.36688 7.52393 7.64288 7.52393 7.87238C7.57043 8.37788 7.61693 9.11363 7.61693 9.11363C7.60193 9.11363 7.58843 9.11363 7.57418 9.11213C7.44922 9.106 7.33015 9.05713 7.23691 8.97372C7.14366 8.8903 7.08189 8.77739 7.06193 8.65388L6.55343 6.03413C6.46118 5.29913 6.83093 4.56338 7.47818 4.24163L7.84793 4.05788C8.07893 3.91988 8.30993 3.73538 8.54093 3.55238L9.37343 2.67863C9.88193 2.21963 10.6214 2.08163 11.2687 2.40338C11.7362 2.54118 12.2336 2.54118 12.7012 2.40338C13.3949 2.17313 14.1802 2.35688 14.7352 2.86313L15.4282 3.55238C15.6134 3.78188 15.8444 3.91988 16.1219 4.05788Z" fill="#4F3332"/>
<path d="M16.1219 4.05788L16.4917 4.24163C17.1389 4.56338 17.5087 5.29913 17.3692 6.07988L16.8614 8.69963C16.8164 8.97038 16.6372 9.15263 16.3687 9.15938H16.3529C16.3529 9.15938 16.3994 8.37788 16.4452 7.91813C16.4827 7.54538 16.4174 7.43138 16.0754 7.09088C15.8909 6.90713 15.7522 6.63188 15.7522 6.35588V5.62088C15.7522 5.39063 15.5669 5.20688 15.3824 5.16113C14.8274 5.02313 13.6724 4.79363 12.0074 4.79363C10.3439 4.79363 9.18818 5.02313 8.63318 5.16113C8.52664 5.18023 8.43061 5.23722 8.36279 5.32158C8.29497 5.40594 8.25995 5.51197 8.26418 5.62013V6.35513C8.26418 6.63188 8.17118 6.90713 7.94018 7.09088L7.80143 7.22888C7.61693 7.36688 7.52393 7.64288 7.52393 7.87238C7.57043 8.37788 7.61693 9.11363 7.61693 9.11363C7.60193 9.11363 7.58843 9.11363 7.57418 9.11213C7.44922 9.106 7.33015 9.05713 7.23691 8.97372C7.14366 8.8903 7.08189 8.77739 7.06193 8.65388L6.55343 6.03413C6.46118 5.29913 6.83093 4.56338 7.47818 4.24163L7.84793 4.05788C8.07893 3.91988 8.30993 3.73538 8.54093 3.55238L9.37343 2.67863C9.88193 2.21963 10.6214 2.08163 11.2687 2.40338C11.7362 2.54118 12.2336 2.54118 12.7012 2.40338C13.3949 2.17313 14.1802 2.35688 14.7352 2.86313L15.4282 3.55238C15.6134 3.78188 15.8444 3.91988 16.1219 4.05788Z" fill="url(#paint42_radial_43_498)"/>
<path d="M16.1219 4.05788L16.4917 4.24163C17.1389 4.56338 17.5087 5.29913 17.3692 6.07988L16.8614 8.69963C16.8164 8.97038 16.6372 9.15263 16.3687 9.15938H16.3529C16.3529 9.15938 16.3994 8.37788 16.4452 7.91813C16.4827 7.54538 16.4174 7.43138 16.0754 7.09088C15.8909 6.90713 15.7522 6.63188 15.7522 6.35588V5.62088C15.7522 5.39063 15.5669 5.20688 15.3824 5.16113C14.8274 5.02313 13.6724 4.79363 12.0074 4.79363C10.3439 4.79363 9.18818 5.02313 8.63318 5.16113C8.52664 5.18023 8.43061 5.23722 8.36279 5.32158C8.29497 5.40594 8.25995 5.51197 8.26418 5.62013V6.35513C8.26418 6.63188 8.17118 6.90713 7.94018 7.09088L7.80143 7.22888C7.61693 7.36688 7.52393 7.64288 7.52393 7.87238C7.57043 8.37788 7.61693 9.11363 7.61693 9.11363C7.60193 9.11363 7.58843 9.11363 7.57418 9.11213C7.44922 9.106 7.33015 9.05713 7.23691 8.97372C7.14366 8.8903 7.08189 8.77739 7.06193 8.65388L6.55343 6.03413C6.46118 5.29913 6.83093 4.56338 7.47818 4.24163L7.84793 4.05788C8.07893 3.91988 8.30993 3.73538 8.54093 3.55238L9.37343 2.67863C9.88193 2.21963 10.6214 2.08163 11.2687 2.40338C11.7362 2.54118 12.2336 2.54118 12.7012 2.40338C13.3949 2.17313 14.1802 2.35688 14.7352 2.86313L15.4282 3.55238C15.6134 3.78188 15.8444 3.91988 16.1219 4.05788Z" fill="url(#paint43_radial_43_498)"/>
<path d="M16.1219 4.05788L16.4917 4.24163C17.1389 4.56338 17.5087 5.29913 17.3692 6.07988L16.8614 8.69963C16.8164 8.97038 16.6372 9.15263 16.3687 9.15938H16.3529C16.3529 9.15938 16.3994 8.37788 16.4452 7.91813C16.4827 7.54538 16.4174 7.43138 16.0754 7.09088C15.8909 6.90713 15.7522 6.63188 15.7522 6.35588V5.62088C15.7522 5.39063 15.5669 5.20688 15.3824 5.16113C14.8274 5.02313 13.6724 4.79363 12.0074 4.79363C10.3439 4.79363 9.18818 5.02313 8.63318 5.16113C8.52664 5.18023 8.43061 5.23722 8.36279 5.32158C8.29497 5.40594 8.25995 5.51197 8.26418 5.62013V6.35513C8.26418 6.63188 8.17118 6.90713 7.94018 7.09088L7.80143 7.22888C7.61693 7.36688 7.52393 7.64288 7.52393 7.87238C7.57043 8.37788 7.61693 9.11363 7.61693 9.11363C7.60193 9.11363 7.58843 9.11363 7.57418 9.11213C7.44922 9.106 7.33015 9.05713 7.23691 8.97372C7.14366 8.8903 7.08189 8.77739 7.06193 8.65388L6.55343 6.03413C6.46118 5.29913 6.83093 4.56338 7.47818 4.24163L7.84793 4.05788C8.07893 3.91988 8.30993 3.73538 8.54093 3.55238L9.37343 2.67863C9.88193 2.21963 10.6214 2.08163 11.2687 2.40338C11.7362 2.54118 12.2336 2.54118 12.7012 2.40338C13.3949 2.17313 14.1802 2.35688 14.7352 2.86313L15.4282 3.55238C15.6134 3.78188 15.8444 3.91988 16.1219 4.05788Z" fill="url(#paint44_radial_43_498)"/>
<path d="M16.1219 4.05788L16.4917 4.24163C17.1389 4.56338 17.5087 5.29913 17.3692 6.07988L16.8614 8.69963C16.8164 8.97038 16.6372 9.15263 16.3687 9.15938H16.3529C16.3529 9.15938 16.3994 8.37788 16.4452 7.91813C16.4827 7.54538 16.4174 7.43138 16.0754 7.09088C15.8909 6.90713 15.7522 6.63188 15.7522 6.35588V5.62088C15.7522 5.39063 15.5669 5.20688 15.3824 5.16113C14.8274 5.02313 13.6724 4.79363 12.0074 4.79363C10.3439 4.79363 9.18818 5.02313 8.63318 5.16113C8.52664 5.18023 8.43061 5.23722 8.36279 5.32158C8.29497 5.40594 8.25995 5.51197 8.26418 5.62013V6.35513C8.26418 6.63188 8.17118 6.90713 7.94018 7.09088L7.80143 7.22888C7.61693 7.36688 7.52393 7.64288 7.52393 7.87238C7.57043 8.37788 7.61693 9.11363 7.61693 9.11363C7.60193 9.11363 7.58843 9.11363 7.57418 9.11213C7.44922 9.106 7.33015 9.05713 7.23691 8.97372C7.14366 8.8903 7.08189 8.77739 7.06193 8.65388L6.55343 6.03413C6.46118 5.29913 6.83093 4.56338 7.47818 4.24163L7.84793 4.05788C8.07893 3.91988 8.30993 3.73538 8.54093 3.55238L9.37343 2.67863C9.88193 2.21963 10.6214 2.08163 11.2687 2.40338C11.7362 2.54118 12.2336 2.54118 12.7012 2.40338C13.3949 2.17313 14.1802 2.35688 14.7352 2.86313L15.4282 3.55238C15.6134 3.78188 15.8444 3.91988 16.1219 4.05788Z" fill="url(#paint45_radial_43_498)"/>
</g>
<g filter="url(#filter13_f_43_498)">
<path d="M11.7322 9.53402L11.025 10.9988C10.9372 11.3003 11.148 11.6018 11.445 11.6018H12.081C12.3787 11.6018 12.5895 11.2958 12.501 10.9988L12.072 9.53402C11.9805 9.21002 11.8282 9.21002 11.7322 9.53402Z" fill="#87565C"/>
</g>
<g filter="url(#filter14_f_43_498)">
<path d="M11.64 9.39388L11.1825 10.8586C11.1607 10.9285 11.1558 11.0026 11.1681 11.0747C11.1804 11.1469 11.2095 11.2151 11.2532 11.2739C11.2968 11.3326 11.3537 11.3803 11.4192 11.4129C11.4847 11.4455 11.557 11.4622 11.6302 11.4616H12.3082C12.3814 11.4622 12.4537 11.4454 12.5192 11.4128C12.5848 11.3802 12.6417 11.3326 12.6854 11.2739C12.729 11.2151 12.7583 11.1469 12.7707 11.0748C12.7831 11.0026 12.7783 10.9286 12.7567 10.8586L12.2992 9.39388C12.2002 9.06988 11.7427 9.06988 11.6392 9.39388H11.64Z" fill="#B7877D"/>
<path d="M11.64 9.39388L11.1825 10.8586C11.1607 10.9285 11.1558 11.0026 11.1681 11.0747C11.1804 11.1469 11.2095 11.2151 11.2532 11.2739C11.2968 11.3326 11.3537 11.3803 11.4192 11.4129C11.4847 11.4455 11.557 11.4622 11.6302 11.4616H12.3082C12.3814 11.4622 12.4537 11.4454 12.5192 11.4128C12.5848 11.3802 12.6417 11.3326 12.6854 11.2739C12.729 11.2151 12.7583 11.1469 12.7707 11.0748C12.7831 11.0026 12.7783 10.9286 12.7567 10.8586L12.2992 9.39388C12.2002 9.06988 11.7427 9.06988 11.6392 9.39388H11.64Z" fill="url(#paint46_linear_43_498)"/>
<path d="M11.64 9.39388L11.1825 10.8586C11.1607 10.9285 11.1558 11.0026 11.1681 11.0747C11.1804 11.1469 11.2095 11.2151 11.2532 11.2739C11.2968 11.3326 11.3537 11.3803 11.4192 11.4129C11.4847 11.4455 11.557 11.4622 11.6302 11.4616H12.3082C12.3814 11.4622 12.4537 11.4454 12.5192 11.4128C12.5848 11.3802 12.6417 11.3326 12.6854 11.2739C12.729 11.2151 12.7583 11.1469 12.7707 11.0748C12.7831 11.0026 12.7783 10.9286 12.7567 10.8586L12.2992 9.39388C12.2002 9.06988 11.7427 9.06988 11.6392 9.39388H11.64Z" fill="url(#paint47_linear_43_498)"/>
<path d="M11.64 9.39388L11.1825 10.8586C11.1607 10.9285 11.1558 11.0026 11.1681 11.0747C11.1804 11.1469 11.2095 11.2151 11.2532 11.2739C11.2968 11.3326 11.3537 11.3803 11.4192 11.4129C11.4847 11.4455 11.557 11.4622 11.6302 11.4616H12.3082C12.3814 11.4622 12.4537 11.4454 12.5192 11.4128C12.5848 11.3802 12.6417 11.3326 12.6854 11.2739C12.729 11.2151 12.7583 11.1469 12.7707 11.0748C12.7831 11.0026 12.7783 10.9286 12.7567 10.8586L12.2992 9.39388C12.2002 9.06988 11.7427 9.06988 11.6392 9.39388H11.64Z" fill="url(#paint48_linear_43_498)"/>
<path d="M11.64 9.39388L11.1825 10.8586C11.1607 10.9285 11.1558 11.0026 11.1681 11.0747C11.1804 11.1469 11.2095 11.2151 11.2532 11.2739C11.2968 11.3326 11.3537 11.3803 11.4192 11.4129C11.4847 11.4455 11.557 11.4622 11.6302 11.4616H12.3082C12.3814 11.4622 12.4537 11.4454 12.5192 11.4128C12.5848 11.3802 12.6417 11.3326 12.6854 11.2739C12.729 11.2151 12.7583 11.1469 12.7707 11.0748C12.7831 11.0026 12.7783 10.9286 12.7567 10.8586L12.2992 9.39388C12.2002 9.06988 11.7427 9.06988 11.6392 9.39388H11.64Z" fill="url(#paint49_radial_43_498)"/>
</g>
<g filter="url(#filter15_f_43_498)">
<path d="M11.64 9.29427L11.1825 10.759C11.1609 10.8289 11.1561 10.9028 11.1684 10.9749C11.1808 11.0469 11.21 11.1151 11.2536 11.1737C11.2972 11.2324 11.354 11.2799 11.4195 11.3125C11.4849 11.3451 11.5571 11.3618 11.6302 11.3613H12.3082C12.3813 11.3618 12.4535 11.3451 12.519 11.3125C12.5844 11.2799 12.6413 11.2324 12.685 11.1737C12.7286 11.1151 12.7579 11.047 12.7704 10.9749C12.7828 10.9029 12.7781 10.8289 12.7567 10.759L12.2992 9.29427C12.2002 8.97027 11.7427 8.97027 11.6392 9.29427H11.64Z" fill="url(#paint50_linear_43_498)"/>
</g>
<path d="M10.7925 12.0213C10.7597 12.0042 10.7223 11.9984 10.6858 12.0046C10.6494 12.0109 10.616 12.0288 10.5908 12.0558C10.5649 12.0817 10.5491 12.116 10.5461 12.1525C10.543 12.189 10.553 12.2254 10.5743 12.2553C10.869 12.7023 11.3843 13.0008 11.9693 13.0008C12.5543 13.0008 13.0695 12.7023 13.3643 12.2553C13.3854 12.225 13.3952 12.1884 13.392 12.1516C13.3889 12.1149 13.373 12.0805 13.347 12.0543C13.3217 12.0276 13.2884 12.0099 13.2521 12.0038C13.2159 11.9977 13.1786 12.0036 13.146 12.0205C12.782 12.2069 12.3783 12.3027 11.9693 12.2995C11.5606 12.3023 11.1573 12.2068 10.7933 12.0213H10.7925Z" fill="#88024E" stroke="url(#paint51_linear_43_498)" stroke-width="0.075"/>
<path d="M14.0272 8.40749C14.5897 8.40749 15.0652 8.79449 15.1942 9.31874C15.203 9.35375 15.2037 9.39031 15.1962 9.42563C15.1887 9.46094 15.1732 9.49407 15.1509 9.52246C15.1286 9.55085 15.1001 9.57375 15.0675 9.5894C15.035 9.60505 14.9993 9.61303 14.9632 9.61274H13.041C13.0119 9.61278 12.9831 9.60642 12.9568 9.59411C12.9305 9.5818 12.9072 9.56383 12.8885 9.5415C12.8699 9.51916 12.8565 9.49299 12.8491 9.46487C12.8417 9.43674 12.8407 9.40733 12.846 9.37874C12.8998 9.10499 13.047 8.85842 13.2625 8.68114C13.4779 8.50387 13.7482 8.40688 14.0272 8.40674V8.40749Z" fill="white"/>
<path d="M13.8487 8.64111C13.967 8.64117 14.0836 8.66852 14.1896 8.72102C14.2955 8.77351 14.388 8.84975 14.4597 8.9438C14.5314 9.03784 14.5804 9.14716 14.6029 9.26325C14.6255 9.37934 14.621 9.49906 14.5897 9.61311H13.1047C13.0741 9.4988 13.0702 9.379 13.0933 9.26295C13.1164 9.1469 13.1658 9.0377 13.2378 8.94378C13.3098 8.84985 13.4023 8.77372 13.5084 8.72124C13.6144 8.66876 13.7311 8.64135 13.8494 8.64111H13.8487Z" fill="url(#paint52_radial_43_498)"/>
<path d="M13.4085 9.4095C13.4085 9.165 13.6035 8.96925 13.8487 8.96925C13.9246 8.96865 13.9994 8.98775 14.0657 9.02468C14.132 9.06161 14.1876 9.11511 14.227 9.17994C14.2665 9.24478 14.2884 9.31875 14.2908 9.39461C14.2931 9.47047 14.2757 9.54563 14.2402 9.61275H13.4602C13.425 9.55114 13.4069 9.48122 13.4077 9.41025L13.4085 9.4095Z" fill="black"/>
<g filter="url(#filter16_f_43_498)">
<path d="M13.7925 8.80382C13.8465 8.87732 13.7325 8.96657 13.602 9.06407C13.4723 9.16157 13.3755 9.22907 13.3208 9.15632C13.266 9.08282 13.3268 8.94482 13.4573 8.84732C13.587 8.74982 13.737 8.73032 13.7918 8.80382H13.7925Z" fill="#C7A7A3"/>
<path d="M13.7925 8.80382C13.8465 8.87732 13.7325 8.96657 13.602 9.06407C13.4723 9.16157 13.3755 9.22907 13.3208 9.15632C13.266 9.08282 13.3268 8.94482 13.4573 8.84732C13.587 8.74982 13.737 8.73032 13.7918 8.80382H13.7925Z" fill="url(#paint53_radial_43_498)"/>
</g>
<g filter="url(#filter17_f_43_498)">
<path d="M14.5335 9.30916C14.5106 9.15847 14.4408 9.01883 14.334 8.91016L14.1105 9.15616L14.211 9.35266L14.5335 9.30916Z" fill="url(#paint54_linear_43_498)"/>
</g>
<path d="M9.90746 8.40749C9.34496 8.40749 8.86871 8.79449 8.73971 9.31874C8.70146 9.46874 8.81621 9.61274 8.96996 9.61274H10.893C11.0152 9.61274 11.1127 9.50024 11.088 9.37874C11.0336 9.10524 10.8862 8.859 10.6709 8.68182C10.4556 8.50464 10.1856 8.40745 9.90671 8.40674L9.90746 8.40749Z" fill="white"/>
<path d="M10.0852 8.64111C9.96699 8.64117 9.85034 8.66852 9.74438 8.72102C9.63841 8.77351 9.54598 8.84975 9.47429 8.9438C9.40259 9.03784 9.35356 9.14716 9.331 9.26325C9.30845 9.37934 9.31298 9.49906 9.34425 9.61311H10.8293C10.8473 9.54636 10.8578 9.48036 10.8578 9.41061C10.8566 9.20638 10.7747 9.01089 10.63 8.86675C10.4853 8.72261 10.2895 8.64151 10.0852 8.64111Z" fill="url(#paint55_radial_43_498)"/>
<path d="M10.5255 9.4095C10.5257 9.35163 10.5145 9.29429 10.4924 9.24079C10.4704 9.18729 10.4379 9.13868 10.397 9.09776C10.3561 9.05684 10.3075 9.02441 10.254 9.00236C10.2005 8.98031 10.1431 8.96905 10.0853 8.96925C10.0094 8.96865 9.93464 8.98775 9.86833 9.02468C9.80203 9.06161 9.74643 9.11511 9.70699 9.17994C9.66754 9.24478 9.64559 9.31875 9.64327 9.39461C9.64096 9.47047 9.65836 9.54563 9.69378 9.61275H10.4738C10.5074 9.55051 10.5255 9.48101 10.5263 9.41025L10.5255 9.4095Z" fill="black"/>
<g filter="url(#filter18_f_43_498)">
<path d="M10.788 9.31972C10.788 9.07147 10.5855 8.90572 10.5307 8.85547L10.2832 9.09547L10.4355 9.40747L10.788 9.31972Z" fill="url(#paint56_linear_43_498)"/>
</g>
<g filter="url(#filter19_f_43_498)">
<path d="M9.93287 9.12015C10.0968 9.03328 10.1941 8.8955 10.1501 8.81241C10.1061 8.72932 9.93745 8.73239 9.77347 8.81927C9.60949 8.90614 9.51225 9.04392 9.55626 9.127C9.60028 9.21009 9.7689 9.20702 9.93287 9.12015Z" fill="#C7A7A3" fill-opacity="0.9"/>
<path d="M9.93287 9.12015C10.0968 9.03328 10.1941 8.8955 10.1501 8.81241C10.1061 8.72932 9.93745 8.73239 9.77347 8.81927C9.60949 8.90614 9.51225 9.04392 9.55626 9.127C9.60028 9.21009 9.7689 9.20702 9.93287 9.12015Z" fill="url(#paint57_radial_43_498)"/>
</g>
<g filter="url(#filter20_i_43_498)">
<path d="M6.59774 3.19968C6.12899 3.39318 5.58074 3.96843 5.87099 4.98093C6.16199 5.99343 6.26549 6.33243 6.28124 6.37593C6.31124 6.50043 6.44849 6.75093 6.75599 6.75093H7.04849C7.13366 6.74681 7.21419 6.71095 7.27424 6.65043C7.38074 6.54993 8.96474 5.45343 11.6445 5.36193C14.3782 5.45343 16.6192 6.54993 16.7257 6.65043C16.7855 6.71081 16.8659 6.74644 16.9507 6.75018H17.244C17.5515 6.75018 17.6887 6.50043 17.7187 6.37518C17.7337 6.33243 17.8387 5.99268 18.129 4.98018C18.4192 3.96768 17.871 3.39318 17.4022 3.19968L13.4947 1.80993C12.5166 1.46207 11.4482 1.46313 10.4707 1.81293L6.59774 3.19968Z" fill="url(#paint58_radial_43_498)"/>
<path d="M6.59774 3.19968C6.12899 3.39318 5.58074 3.96843 5.87099 4.98093C6.16199 5.99343 6.26549 6.33243 6.28124 6.37593C6.31124 6.50043 6.44849 6.75093 6.75599 6.75093H7.04849C7.13366 6.74681 7.21419 6.71095 7.27424 6.65043C7.38074 6.54993 8.96474 5.45343 11.6445 5.36193C14.3782 5.45343 16.6192 6.54993 16.7257 6.65043C16.7855 6.71081 16.8659 6.74644 16.9507 6.75018H17.244C17.5515 6.75018 17.6887 6.50043 17.7187 6.37518C17.7337 6.33243 17.8387 5.99268 18.129 4.98018C18.4192 3.96768 17.871 3.39318 17.4022 3.19968L13.4947 1.80993C12.5166 1.46207 11.4482 1.46313 10.4707 1.81293L6.59774 3.19968Z" fill="url(#paint59_linear_43_498)"/>
</g>
<path d="M6.59774 3.19968C6.12899 3.39318 5.58074 3.96843 5.87099 4.98093C6.16199 5.99343 6.26549 6.33243 6.28124 6.37593C6.31124 6.50043 6.44849 6.75093 6.75599 6.75093H7.04849C7.13366 6.74681 7.21419 6.71095 7.27424 6.65043C7.38074 6.54993 8.96474 5.45343 11.6445 5.36193C14.3782 5.45343 16.6192 6.54993 16.7257 6.65043C16.7855 6.71081 16.8659 6.74644 16.9507 6.75018H17.244C17.5515 6.75018 17.6887 6.50043 17.7187 6.37518C17.7337 6.33243 17.8387 5.99268 18.129 4.98018C18.4192 3.96768 17.871 3.39318 17.4022 3.19968L13.4947 1.80993C12.5166 1.46207 11.4482 1.46313 10.4707 1.81293L6.59774 3.19968Z" fill="url(#paint60_radial_43_498)"/>
<g filter="url(#filter21_f_43_498)">
<path d="M11.0549 2.85009V3.54159C11.0515 3.66062 11.072 3.77914 11.1151 3.89013C11.1583 4.00111 11.2233 4.10231 11.3063 4.18773C11.3892 4.27315 11.4885 4.34105 11.5982 4.38742C11.7079 4.43379 11.8257 4.45768 11.9448 4.45768C12.0639 4.45768 12.1818 4.43379 12.2915 4.38742C12.4012 4.34105 12.5004 4.27315 12.5834 4.18773C12.6664 4.10231 12.7314 4.00111 12.7745 3.89013C12.8177 3.77914 12.8382 3.66062 12.8347 3.54159V2.84859C12.8347 2.82174 12.8275 2.79538 12.8138 2.77226C12.8002 2.74914 12.7806 2.73011 12.757 2.71716C12.7335 2.70421 12.7069 2.69782 12.6801 2.69864C12.6533 2.69946 12.6271 2.70747 12.6044 2.72184L12.4147 2.84259C12.3987 2.85275 12.3794 2.85647 12.3608 2.85299C12.3421 2.84951 12.3255 2.8391 12.3142 2.82384L12.0937 2.52234C12.0763 2.49848 12.0535 2.47906 12.0272 2.46568C12.0009 2.45229 11.9717 2.44531 11.9422 2.44531C11.9127 2.44531 11.8835 2.45229 11.8572 2.46568C11.8309 2.47906 11.8081 2.49848 11.7907 2.52234L11.5717 2.82309C11.5604 2.83855 11.5436 2.8491 11.5248 2.85259C11.506 2.85607 11.4865 2.85223 11.4704 2.84184L11.2852 2.72334C11.2625 2.70878 11.2363 2.7006 11.2093 2.69968C11.1824 2.69875 11.1557 2.70511 11.132 2.71809C11.1084 2.73106 11.0887 2.75017 11.075 2.7734C11.0613 2.79663 11.0541 2.82312 11.0542 2.85009H11.0549Z" fill="#297ECB"/>
</g>
<g filter="url(#filter22_ii_43_498)">
<path d="M11.0947 2.81784V3.50934C11.0947 3.74545 11.1885 3.97189 11.3555 4.13884C11.5224 4.3058 11.7489 4.39959 11.985 4.39959C12.2211 4.39959 12.4475 4.3058 12.6145 4.13884C12.7814 3.97189 12.8752 3.74545 12.8752 3.50934V2.81634C12.8752 2.78943 12.8679 2.76304 12.8541 2.73991C12.8404 2.71679 12.8207 2.69779 12.7971 2.68491C12.7734 2.67202 12.7468 2.66573 12.7199 2.66668C12.693 2.66764 12.6669 2.67581 12.6442 2.69034L12.4552 2.81034C12.4392 2.8205 12.4199 2.82422 12.4013 2.82074C12.3826 2.81726 12.366 2.80685 12.3547 2.79159L12.1335 2.49009C12.1161 2.46637 12.0933 2.44709 12.067 2.43379C12.0408 2.4205 12.0118 2.41357 11.9824 2.41357C11.9529 2.41357 11.9239 2.4205 11.8977 2.43379C11.8714 2.44709 11.8486 2.46637 11.8312 2.49009L11.6122 2.79084C11.6009 2.8063 11.5842 2.81685 11.5653 2.82034C11.5465 2.82382 11.5271 2.81998 11.511 2.80959L11.3257 2.69109C11.303 2.67653 11.2768 2.66835 11.2499 2.66743C11.2229 2.6665 11.1962 2.67286 11.1726 2.68583C11.1489 2.69881 11.1292 2.71792 11.1155 2.74115C11.1018 2.76438 11.0946 2.79087 11.0947 2.81784Z" fill="url(#paint61_linear_43_498)"/>
</g>
<g filter="url(#filter23_ii_43_498)">
<path d="M7.08154 6.52741C7.37854 7.16041 8.21779 8.37316 10.059 8.37316H13.8953C15.7358 8.37316 16.575 7.16041 16.8728 6.52816C15.1823 5.74066 12.9053 5.46091 11.9768 5.42041C11.049 5.46091 8.77129 5.73991 7.08154 6.52741Z" fill="url(#paint62_radial_43_498)"/>
<path d="M7.08154 6.52741C7.37854 7.16041 8.21779 8.37316 10.059 8.37316H13.8953C15.7358 8.37316 16.575 7.16041 16.8728 6.52816C15.1823 5.74066 12.9053 5.46091 11.9768 5.42041C11.049 5.46091 8.77129 5.73991 7.08154 6.52741Z" fill="url(#paint63_radial_43_498)"/>
</g>
<g filter="url(#filter24_f_43_498)">
<path fill-rule="evenodd" clip-rule="evenodd" d="M16.1865 6.47732C12.6713 5.18957 9.24376 5.90057 7.97926 6.42332C7.84738 6.47782 7.69925 6.4777 7.56746 6.42299C7.43567 6.36827 7.33101 6.26345 7.27651 6.13157C7.22201 5.99969 7.22213 5.85156 7.27684 5.71977C7.33155 5.58798 7.43638 5.48332 7.56826 5.42882C9.01576 4.83032 12.7283 4.06382 16.5563 5.46632C16.6226 5.4906 16.6836 5.52771 16.7356 5.57555C16.7877 5.62338 16.8298 5.681 16.8596 5.7451C16.8893 5.80921 16.9062 5.87855 16.9092 5.94918C16.9121 6.0198 16.9012 6.09031 16.8769 6.15669C16.8526 6.22308 16.8155 6.28403 16.7677 6.33607C16.7198 6.38811 16.6622 6.43022 16.5981 6.45999C16.534 6.48976 16.4646 6.50662 16.394 6.50959C16.3234 6.51256 16.2529 6.5016 16.1865 6.47732Z" fill="#247DBD"/>
</g>
<g filter="url(#filter25_i_43_498)">
<path fill-rule="evenodd" clip-rule="evenodd" d="M16.44 6.72148C12.6435 5.33098 8.94077 6.14848 7.57502 6.71323C7.43345 6.76777 7.27616 6.7648 7.13674 6.70495C6.99733 6.6451 6.88685 6.53312 6.82888 6.39291C6.77092 6.2527 6.77007 6.09539 6.82653 5.95456C6.88298 5.81374 6.99226 5.70057 7.13102 5.63923C8.69477 4.99273 12.705 4.11523 16.8398 5.63023C16.9132 5.65513 16.9808 5.69446 17.0388 5.74591C17.0968 5.79735 17.1439 5.85987 17.1773 5.92979C17.2108 5.9997 17.2299 6.0756 17.2336 6.15302C17.2373 6.23044 17.2254 6.30781 17.1988 6.38059C17.1721 6.45336 17.1312 6.52007 17.0784 6.57679C17.0255 6.63351 16.9619 6.67909 16.8912 6.71085C16.8205 6.74262 16.7442 6.75992 16.6667 6.76174C16.5892 6.76357 16.5121 6.74988 16.44 6.72148Z" fill="url(#paint64_linear_43_498)"/>
</g>
<path fill-rule="evenodd" clip-rule="evenodd" d="M16.44 6.72148C12.6435 5.33098 8.94077 6.14848 7.57502 6.71323C7.43345 6.76777 7.27616 6.7648 7.13674 6.70495C6.99733 6.6451 6.88685 6.53312 6.82888 6.39291C6.77092 6.2527 6.77007 6.09539 6.82653 5.95456C6.88298 5.81374 6.99226 5.70057 7.13102 5.63923C8.69477 4.99273 12.705 4.11523 16.8398 5.63023C16.9132 5.65513 16.9808 5.69446 17.0388 5.74591C17.0968 5.79735 17.1439 5.85987 17.1773 5.92979C17.2108 5.9997 17.2299 6.0756 17.2336 6.15302C17.2373 6.23044 17.2254 6.30781 17.1988 6.38059C17.1721 6.45336 17.1312 6.52007 17.0784 6.57679C17.0255 6.63351 16.9619 6.67909 16.8912 6.71085C16.8205 6.74262 16.7442 6.75992 16.6667 6.76174C16.5892 6.76357 16.5121 6.74988 16.44 6.72148Z" fill="url(#paint65_radial_43_498)"/>
<path fill-rule="evenodd" clip-rule="evenodd" d="M16.44 6.72148C12.6435 5.33098 8.94077 6.14848 7.57502 6.71323C7.43345 6.76777 7.27616 6.7648 7.13674 6.70495C6.99733 6.6451 6.88685 6.53312 6.82888 6.39291C6.77092 6.2527 6.77007 6.09539 6.82653 5.95456C6.88298 5.81374 6.99226 5.70057 7.13102 5.63923C8.69477 4.99273 12.705 4.11523 16.8398 5.63023C16.9132 5.65513 16.9808 5.69446 17.0388 5.74591C17.0968 5.79735 17.1439 5.85987 17.1773 5.92979C17.2108 5.9997 17.2299 6.0756 17.2336 6.15302C17.2373 6.23044 17.2254 6.30781 17.1988 6.38059C17.1721 6.45336 17.1312 6.52007 17.0784 6.57679C17.0255 6.63351 16.9619 6.67909 16.8912 6.71085C16.8205 6.74262 16.7442 6.75992 16.6667 6.76174C16.5892 6.76357 16.5121 6.74988 16.44 6.72148Z" fill="url(#paint66_radial_43_498)"/>
<defs>
<filter id="filter0_f_43_498" x="9.1095" y="14.3892" width="5.5238" height="4.50732" filterUnits="userSpaceOnUse" color-interpolation-filters="sRGB">
<feFlood flood-opacity="0" result="BackgroundImageFix"/>
<feBlend mode="normal" in="SourceGraphic" in2="BackgroundImageFix" result="shape"/>
<feGaussianBlur stdDeviation="0.1875" result="effect1_foregroundBlur_43_498"/>
</filter>
<filter id="filter1_i_43_498" x="10.4692" y="16.3719" width="3.09001" height="2.08516" filterUnits="userSpaceOnUse" color-interpolation-filters="sRGB">
<feFlood flood-opacity="0" result="BackgroundImageFix"/>
<feBlend mode="normal" in="SourceGraphic" in2="BackgroundImageFix" result="shape"/>
<feColorMatrix in="SourceAlpha" type="matrix" values="0 0 0 0 0 0 0 0 0 0 0 0 0 0 0 0 0 0 127 0" result="hardAlpha"/>
<feOffset dx="0.075" dy="-0.1125"/>
<feGaussianBlur stdDeviation="0.1125"/>
<feComposite in2="hardAlpha" operator="arithmetic" k2="-1" k3="1"/>
<feColorMatrix type="matrix" values="0 0 0 0 0.0980392 0 0 0 0 0.321569 0 0 0 0 0.741176 0 0 0 1 0"/>
<feBlend mode="normal" in2="shape" result="effect1_innerShadow_43_498"/>
</filter>
<filter id="filter2_i_43_498" x="9.40723" y="14.3469" width="2.68499" height="3.4041" filterUnits="userSpaceOnUse" color-interpolation-filters="sRGB">
<feFlood flood-opacity="0" result="BackgroundImageFix"/>
<feBlend mode="normal" in="SourceGraphic" in2="BackgroundImageFix" result="shape"/>
<feColorMatrix in="SourceAlpha" type="matrix" values="0 0 0 0 0 0 0 0 0 0 0 0 0 0 0 0 0 0 127 0" result="hardAlpha"/>
<feOffset dx="0.075" dy="-0.075"/>
<feGaussianBlur stdDeviation="0.15"/>
<feComposite in2="hardAlpha" operator="arithmetic" k2="-1" k3="1"/>
<feColorMatrix type="matrix" values="0 0 0 0 0.321569 0 0 0 0 0.701961 0 0 0 0 1 0 0 0 1 0"/>
<feBlend mode="normal" in2="shape" result="effect1_innerShadow_43_498"/>
</filter>
<filter id="filter3_i_43_498" x="11.9092" y="14.3469" width="2.7" height="3.40459" filterUnits="userSpaceOnUse" color-interpolation-filters="sRGB">
<feFlood flood-opacity="0" result="BackgroundImageFix"/>
<feBlend mode="normal" in="SourceGraphic" in2="BackgroundImageFix" result="shape"/>
<feColorMatrix in="SourceAlpha" type="matrix" values="0 0 0 0 0 0 0 0 0 0 0 0 0 0 0 0 0 0 127 0" result="hardAlpha"/>
<feOffset dx="0.075" dy="-0.075"/>
<feGaussianBlur stdDeviation="0.15"/>
<feComposite in2="hardAlpha" operator="arithmetic" k2="-1" k3="1"/>
<feColorMatrix type="matrix" values="0 0 0 0 0.321569 0 0 0 0 0.701961 0 0 0 0 1 0 0 0 1 0"/>
<feBlend mode="normal" in2="shape" result="effect1_innerShadow_43_498"/>
</filter>
<filter id="filter4_i_43_498" x="10.3042" y="14.4375" width="3.26404" height="2.10352" filterUnits="userSpaceOnUse" color-interpolation-filters="sRGB">
<feFlood flood-opacity="0" result="BackgroundImageFix"/>
<feBlend mode="normal" in="SourceGraphic" in2="BackgroundImageFix" result="shape"/>
<feColorMatrix in="SourceAlpha" type="matrix" values="0 0 0 0 0 0 0 0 0 0 0 0 0 0 0 0 0 0 127 0" result="hardAlpha"/>
<feOffset dy="-0.1875"/>
<feGaussianBlur stdDeviation="0.225"/>
<feComposite in2="hardAlpha" operator="arithmetic" k2="-1" k3="1"/>
<feColorMatrix type="matrix" values="0 0 0 0 0.466667 0 0 0 0 0.278431 0 0 0 0 0.403922 0 0 0 1 0"/>
<feBlend mode="normal" in2="shape" result="effect1_innerShadow_43_498"/>
</filter>
<filter id="filter5_ii_43_498" x="14.0092" y="18.2478" width="2.29724" height="2.8001" filterUnits="userSpaceOnUse" color-interpolation-filters="sRGB">
<feFlood flood-opacity="0" result="BackgroundImageFix"/>
<feBlend mode="normal" in="SourceGraphic" in2="BackgroundImageFix" result="shape"/>
<feColorMatrix in="SourceAlpha" type="matrix" values="0 0 0 0 0 0 0 0 0 0 0 0 0 0 0 0 0 0 127 0" result="hardAlpha"/>
<feOffset dx="-0.1125"/>
<feGaussianBlur stdDeviation="0.05625"/>
<feComposite in2="hardAlpha" operator="arithmetic" k2="-1" k3="1"/>
<feColorMatrix type="matrix" values="0 0 0 0 1 0 0 0 0 0.952941 0 0 0 0 0.411765 0 0 0 1 0"/>
<feBlend mode="normal" in2="shape" result="effect1_innerShadow_43_498"/>
<feColorMatrix in="SourceAlpha" type="matrix" values="0 0 0 0 0 0 0 0 0 0 0 0 0 0 0 0 0 0 127 0" result="hardAlpha"/>
<feOffset dx="0.075" dy="-0.075"/>
<feGaussianBlur stdDeviation="0.075"/>
<feComposite in2="hardAlpha" operator="arithmetic" k2="-1" k3="1"/>
<feColorMatrix type="matrix" values="0 0 0 0 0.952941 0 0 0 0 0.623529 0 0 0 0 0.317647 0 0 0 1 0"/>
<feBlend mode="normal" in2="effect1_innerShadow_43_498" result="effect2_innerShadow_43_498"/>
</filter>
<filter id="filter6_ii_43_498" x="6.59172" y="19.4079" width="3.22944" height="1.00029" filterUnits="userSpaceOnUse" color-interpolation-filters="sRGB">
<feFlood flood-opacity="0" result="BackgroundImageFix"/>
<feBlend mode="normal" in="SourceGraphic" in2="BackgroundImageFix" result="shape"/>
<feColorMatrix in="SourceAlpha" type="matrix" values="0 0 0 0 0 0 0 0 0 0 0 0 0 0 0 0 0 0 127 0" result="hardAlpha"/>
<feOffset dx="-0.1125"/>
<feGaussianBlur stdDeviation="0.05625"/>
<feComposite in2="hardAlpha" operator="arithmetic" k2="-1" k3="1"/>
<feColorMatrix type="matrix" values="0 0 0 0 1 0 0 0 0 0.952941 0 0 0 0 0.411765 0 0 0 1 0"/>
<feBlend mode="normal" in2="shape" result="effect1_innerShadow_43_498"/>
<feColorMatrix in="SourceAlpha" type="matrix" values="0 0 0 0 0 0 0 0 0 0 0 0 0 0 0 0 0 0 127 0" result="hardAlpha"/>
<feOffset dy="-0.075"/>
<feGaussianBlur stdDeviation="0.075"/>
<feComposite in2="hardAlpha" operator="arithmetic" k2="-1" k3="1"/>
<feColorMatrix type="matrix" values="0 0 0 0 0.952941 0 0 0 0 0.623529 0 0 0 0 0.317647 0 0 0 1 0"/>
<feBlend mode="normal" in2="effect1_innerShadow_43_498" result="effect2_innerShadow_43_498"/>
</filter>
<filter id="filter7_i_43_498" x="6.43945" y="8.20166" width="3.02695" height="2.87695" filterUnits="userSpaceOnUse" color-interpolation-filters="sRGB">
<feFlood flood-opacity="0" result="BackgroundImageFix"/>
<feBlend mode="normal" in="SourceGraphic" in2="BackgroundImageFix" result="shape"/>
<feColorMatrix in="SourceAlpha" type="matrix" values="0 0 0 0 0 0 0 0 0 0 0 0 0 0 0 0 0 0 127 0" result="hardAlpha"/>
<feOffset dx="0.15"/>
<feGaussianBlur stdDeviation="0.1125"/>
<feComposite in2="hardAlpha" operator="arithmetic" k2="-1" k3="1"/>
<feColorMatrix type="matrix" values="0 0 0 0 0.619608 0 0 0 0 0.470588 0 0 0 0 0.407843 0 0 0 1 0"/>
<feBlend mode="normal" in2="shape" result="effect1_innerShadow_43_498"/>
</filter>
<filter id="filter8_f_43_498" x="6.64575" y="8.40771" width="2.46448" height="2.46436" filterUnits="userSpaceOnUse" color-interpolation-filters="sRGB">
<feFlood flood-opacity="0" result="BackgroundImageFix"/>
<feBlend mode="normal" in="SourceGraphic" in2="BackgroundImageFix" result="shape"/>
<feGaussianBlur stdDeviation="0.1875" result="effect1_foregroundBlur_43_498"/>
</filter>
<filter id="filter9_i_43_498" x="14.637" y="8.01416" width="3.06445" height="3.06445" filterUnits="userSpaceOnUse" color-interpolation-filters="sRGB">
<feFlood flood-opacity="0" result="BackgroundImageFix"/>
<feBlend mode="normal" in="SourceGraphic" in2="BackgroundImageFix" result="shape"/>
<feColorMatrix in="SourceAlpha" type="matrix" values="0 0 0 0 0 0 0 0 0 0 0 0 0 0 0 0 0 0 127 0" result="hardAlpha"/>
<feOffset dx="0.1875" dy="-0.1875"/>
<feGaussianBlur stdDeviation="0.1875"/>
<feComposite in2="hardAlpha" operator="arithmetic" k2="-1" k3="1"/>
<feColorMatrix type="matrix" values="0 0 0 0 0.584314 0 0 0 0 0.368627 0 0 0 0 0.470588 0 0 0 1 0"/>
<feBlend mode="normal" in2="shape" result="effect1_innerShadow_43_498"/>
</filter>
<filter id="filter10_f_43_498" x="14.8433" y="8.40771" width="2.46448" height="2.46436" filterUnits="userSpaceOnUse" color-interpolation-filters="sRGB">
<feFlood flood-opacity="0" result="BackgroundImageFix"/>
<feBlend mode="normal" in="SourceGraphic" in2="BackgroundImageFix" result="shape"/>
<feGaussianBlur stdDeviation="0.1875" result="effect1_foregroundBlur_43_498"/>
</filter>
<filter id="filter11_ii_43_498" x="7.52393" y="4.79346" width="9.68958" height="10.4393" filterUnits="userSpaceOnUse" color-interpolation-filters="sRGB">
<feFlood flood-opacity="0" result="BackgroundImageFix"/>
<feBlend mode="normal" in="SourceGraphic" in2="BackgroundImageFix" result="shape"/>
<feColorMatrix in="SourceAlpha" type="matrix" values="0 0 0 0 0 0 0 0 0 0 0 0 0 0 0 0 0 0 127 0" result="hardAlpha"/>
<feOffset dx="0.75"/>
<feGaussianBlur stdDeviation="0.525"/>
<feComposite in2="hardAlpha" operator="arithmetic" k2="-1" k3="1"/>
<feColorMatrix type="matrix" values="0 0 0 0 0.584314 0 0 0 0 0.427451 0 0 0 0 0.376471 0 0 0 1 0"/>
<feBlend mode="normal" in2="shape" result="effect1_innerShadow_43_498"/>
<feColorMatrix in="SourceAlpha" type="matrix" values="0 0 0 0 0 0 0 0 0 0 0 0 0 0 0 0 0 0 127 0" result="hardAlpha"/>
<feOffset dy="0.075"/>
<feGaussianBlur stdDeviation="0.15"/>
<feComposite in2="hardAlpha" operator="arithmetic" k2="-1" k3="1"/>
<feColorMatrix type="matrix" values="0 0 0 0 0.419608 0 0 0 0 0.25098 0 0 0 0 0.262745 0 0 0 1 0"/>
<feBlend mode="normal" in2="effect1_innerShadow_43_498" result="effect2_innerShadow_43_498"/>
</filter>
<filter id="filter12_i_43_498" x="6.53943" y="1.85303" width="10.859" height="7.30615" filterUnits="userSpaceOnUse" color-interpolation-filters="sRGB">
<feFlood flood-opacity="0" result="BackgroundImageFix"/>
<feBlend mode="normal" in="SourceGraphic" in2="BackgroundImageFix" result="shape"/>
<feColorMatrix in="SourceAlpha" type="matrix" values="0 0 0 0 0 0 0 0 0 0 0 0 0 0 0 0 0 0 127 0" result="hardAlpha"/>
<feOffset dy="-0.375"/>
<feGaussianBlur stdDeviation="0.28125"/>
<feComposite in2="hardAlpha" operator="arithmetic" k2="-1" k3="1"/>
<feColorMatrix type="matrix" values="0 0 0 0 0.207843 0 0 0 0 0.109804 0 0 0 0 0.109804 0 0 0 1 0"/>
<feBlend mode="normal" in2="shape" result="effect1_innerShadow_43_498"/>
</filter>
<filter id="filter13_f_43_498" x="10.4424" y="8.72852" width="2.64148" height="3.43555" filterUnits="userSpaceOnUse" color-interpolation-filters="sRGB">
<feFlood flood-opacity="0" result="BackgroundImageFix"/>
<feBlend mode="normal" in="SourceGraphic" in2="BackgroundImageFix" result="shape"/>
<feGaussianBlur stdDeviation="0.28125" result="effect1_foregroundBlur_43_498"/>
</filter>
<filter id="filter14_f_43_498" x="10.974" y="8.96338" width="1.99084" height="2.68555" filterUnits="userSpaceOnUse" color-interpolation-filters="sRGB">
<feFlood flood-opacity="0" result="BackgroundImageFix"/>
<feBlend mode="normal" in="SourceGraphic" in2="BackgroundImageFix" result="shape"/>
<feGaussianBlur stdDeviation="0.09375" result="effect1_foregroundBlur_43_498"/>
</filter>
<filter id="filter15_f_43_498" x="10.9742" y="8.86377" width="1.99048" height="2.68506" filterUnits="userSpaceOnUse" color-interpolation-filters="sRGB">
<feFlood flood-opacity="0" result="BackgroundImageFix"/>
<feBlend mode="normal" in="SourceGraphic" in2="BackgroundImageFix" result="shape"/>
<feGaussianBlur stdDeviation="0.09375" result="effect1_foregroundBlur_43_498"/>
</filter>
<filter id="filter16_f_43_498" x="13.2257" y="8.68428" width="0.655615" height="0.577734" filterUnits="userSpaceOnUse" color-interpolation-filters="sRGB">
<feFlood flood-opacity="0" result="BackgroundImageFix"/>
<feBlend mode="normal" in="SourceGraphic" in2="BackgroundImageFix" result="shape"/>
<feGaussianBlur stdDeviation="0.0375" result="effect1_foregroundBlur_43_498"/>
</filter>
<filter id="filter17_f_43_498" x="13.9605" y="8.76016" width="0.722974" height="0.742383" filterUnits="userSpaceOnUse" color-interpolation-filters="sRGB">
<feFlood flood-opacity="0" result="BackgroundImageFix"/>
<feBlend mode="normal" in="SourceGraphic" in2="BackgroundImageFix" result="shape"/>
<feGaussianBlur stdDeviation="0.075" result="effect1_foregroundBlur_43_498"/>
</filter>
<filter id="filter18_f_43_498" x="10.1332" y="8.70547" width="0.804761" height="0.851758" filterUnits="userSpaceOnUse" color-interpolation-filters="sRGB">
<feFlood flood-opacity="0" result="BackgroundImageFix"/>
<feBlend mode="normal" in="SourceGraphic" in2="BackgroundImageFix" result="shape"/>
<feGaussianBlur stdDeviation="0.075" result="effect1_foregroundBlur_43_498"/>
</filter>
<filter id="filter19_f_43_498" x="9.47065" y="8.67695" width="0.76499" height="0.585547" filterUnits="userSpaceOnUse" color-interpolation-filters="sRGB">
<feFlood flood-opacity="0" result="BackgroundImageFix"/>
<feBlend mode="normal" in="SourceGraphic" in2="BackgroundImageFix" result="shape"/>
<feGaussianBlur stdDeviation="0.0375" result="effect1_foregroundBlur_43_498"/>
</filter>
<filter id="filter20_i_43_498" x="5.79004" y="1.5498" width="12.4199" height="5.20117" filterUnits="userSpaceOnUse" color-interpolation-filters="sRGB">
<feFlood flood-opacity="0" result="BackgroundImageFix"/>
<feBlend mode="normal" in="SourceGraphic" in2="BackgroundImageFix" result="shape"/>
<feColorMatrix in="SourceAlpha" type="matrix" values="0 0 0 0 0 0 0 0 0 0 0 0 0 0 0 0 0 0 127 0" result="hardAlpha"/>
<feOffset/>
<feGaussianBlur stdDeviation="0.375"/>
<feComposite in2="hardAlpha" operator="arithmetic" k2="-1" k3="1"/>
<feColorMatrix type="matrix" values="0 0 0 0 0.298039 0 0 0 0 0.537255 0 0 0 0 0.701961 0 0 0 1 0"/>
<feBlend mode="normal" in2="shape" result="effect1_innerShadow_43_498"/>
</filter>
<filter id="filter21_f_43_498" x="10.9417" y="2.33281" width="2.00588" height="2.23721" filterUnits="userSpaceOnUse" color-interpolation-filters="sRGB">
<feFlood flood-opacity="0" result="BackgroundImageFix"/>
<feBlend mode="normal" in="SourceGraphic" in2="BackgroundImageFix" result="shape"/>
<feGaussianBlur stdDeviation="0.05625" result="effect1_foregroundBlur_43_498"/>
</filter>
<filter id="filter22_ii_43_498" x="10.9822" y="2.33857" width="1.96802" height="2.06084" filterUnits="userSpaceOnUse" color-interpolation-filters="sRGB">
<feFlood flood-opacity="0" result="BackgroundImageFix"/>
<feBlend mode="normal" in="SourceGraphic" in2="BackgroundImageFix" result="shape"/>
<feColorMatrix in="SourceAlpha" type="matrix" values="0 0 0 0 0 0 0 0 0 0 0 0 0 0 0 0 0 0 127 0" result="hardAlpha"/>
<feOffset dx="-0.1125"/>
<feGaussianBlur stdDeviation="0.05625"/>
<feComposite in2="hardAlpha" operator="arithmetic" k2="-1" k3="1"/>
<feColorMatrix type="matrix" values="0 0 0 0 1 0 0 0 0 0.952941 0 0 0 0 0.411765 0 0 0 1 0"/>
<feBlend mode="normal" in2="shape" result="effect1_innerShadow_43_498"/>
<feColorMatrix in="SourceAlpha" type="matrix" values="0 0 0 0 0 0 0 0 0 0 0 0 0 0 0 0 0 0 127 0" result="hardAlpha"/>
<feOffset dx="0.075" dy="-0.075"/>
<feGaussianBlur stdDeviation="0.09375"/>
<feComposite in2="hardAlpha" operator="arithmetic" k2="-1" k3="1"/>
<feColorMatrix type="matrix" values="0 0 0 0 0.952941 0 0 0 0 0.623529 0 0 0 0 0.317647 0 0 0 1 0"/>
<feBlend mode="normal" in2="effect1_innerShadow_43_498" result="effect2_innerShadow_43_498"/>
</filter>
<filter id="filter23_ii_43_498" x="7.00654" y="5.30791" width="9.86626" height="3.06514" filterUnits="userSpaceOnUse" color-interpolation-filters="sRGB">
<feFlood flood-opacity="0" result="BackgroundImageFix"/>
<feBlend mode="normal" in="SourceGraphic" in2="BackgroundImageFix" result="shape"/>
<feColorMatrix in="SourceAlpha" type="matrix" values="0 0 0 0 0 0 0 0 0 0 0 0 0 0 0 0 0 0 127 0" result="hardAlpha"/>
<feOffset dx="-0.075" dy="-0.1125"/>
<feGaussianBlur stdDeviation="0.09375"/>
<feComposite in2="hardAlpha" operator="arithmetic" k2="-1" k3="1"/>
<feColorMatrix type="matrix" values="0 0 0 0 0.368627 0 0 0 0 0.313726 0 0 0 0 0.427451 0 0 0 1 0"/>
<feBlend mode="normal" in2="shape" result="effect1_innerShadow_43_498"/>
<feColorMatrix in="SourceAlpha" type="matrix" values="0 0 0 0 0 0 0 0 0 0 0 0 0 0 0 0 0 0 127 0" result="hardAlpha"/>
<feOffset dy="-0.075"/>
<feGaussianBlur stdDeviation="0.0375"/>
<feComposite in2="hardAlpha" operator="arithmetic" k2="-1" k3="1"/>
<feColorMatrix type="matrix" values="0 0 0 0 0.34902 0 0 0 0 0.207843 0 0 0 0 0.407843 0 0 0 1 0"/>
<feBlend mode="normal" in2="effect1_innerShadow_43_498" result="effect2_innerShadow_43_498"/>
</filter>
<filter id="filter24_f_43_498" x="6.86072" y="4.29883" width="10.424" height="2.58643" filterUnits="userSpaceOnUse" color-interpolation-filters="sRGB">
<feFlood flood-opacity="0" result="BackgroundImageFix"/>
<feBlend mode="normal" in="SourceGraphic" in2="BackgroundImageFix" result="shape"/>
<feGaussianBlur stdDeviation="0.1875" result="effect1_foregroundBlur_43_498"/>
</filter>
<filter id="filter25_i_43_498" x="6.78479" y="4.71748" width="10.5245" height="2.04424" filterUnits="userSpaceOnUse" color-interpolation-filters="sRGB">
<feFlood flood-opacity="0" result="BackgroundImageFix"/>
<feBlend mode="normal" in="SourceGraphic" in2="BackgroundImageFix" result="shape"/>
<feColorMatrix in="SourceAlpha" type="matrix" values="0 0 0 0 0 0 0 0 0 0 0 0 0 0 0 0 0 0 127 0" result="hardAlpha"/>
<feOffset dx="0.075" dy="-0.075"/>
<feGaussianBlur stdDeviation="0.1875"/>
<feComposite in2="hardAlpha" operator="arithmetic" k2="-1" k3="1"/>
<feColorMatrix type="matrix" values="0 0 0 0 0.333333 0 0 0 0 0.603922 0 0 0 0 0.862745 0 0 0 1 0"/>
<feBlend mode="normal" in2="shape" result="effect1_innerShadow_43_498"/>
</filter>
<radialGradient id="paint0_radial_43_498" cx="0" cy="0" r="1" gradientUnits="userSpaceOnUse" gradientTransform="translate(10.2465 13.5244) rotate(84.593) scale(4.72556 9.03593)">
<stop offset="0.259" stop-color="#3A84B9"/>
<stop offset="1" stop-color="#36A5FC" stop-opacity="0"/>
</radialGradient>
<radialGradient id="paint1_radial_43_498" cx="0" cy="0" r="1" gradientUnits="userSpaceOnUse" gradientTransform="translate(6.07423 22.4509) scale(2.01563 10.8076)">
<stop stop-color="#30ACFF"/>
<stop offset="1" stop-color="#30ACFF" stop-opacity="0"/>
</radialGradient>
<radialGradient id="paint2_radial_43_498" cx="0" cy="0" r="1" gradientUnits="userSpaceOnUse" gradientTransform="translate(18.0037 20.9066) rotate(180) scale(2.36719 9.11715)">
<stop offset="0.208" stop-color="#5BCDFF"/>
<stop offset="1" stop-color="#5BCDFF" stop-opacity="0"/>
</radialGradient>
<linearGradient id="paint3_linear_43_498" x1="5.94448" y1="21.3581" x2="6.15373" y2="21.3581" gradientUnits="userSpaceOnUse">
<stop offset="0.229" stop-color="#1B89DC"/>
<stop offset="1" stop-color="#1B89DC" stop-opacity="0"/>
</linearGradient>
<radialGradient id="paint4_radial_43_498" cx="0" cy="0" r="1" gradientUnits="userSpaceOnUse" gradientTransform="translate(4.83223 22.4505) rotate(-82.2997) scale(5.24753 2.89175)">
<stop stop-color="#3BAFFF"/>
<stop offset="1" stop-color="#409ED2"/>
</radialGradient>
<radialGradient id="paint5_radial_43_498" cx="0" cy="0" r="1" gradientUnits="userSpaceOnUse" gradientTransform="translate(6.21523 22.4505) rotate(180) scale(1.33594 10.2821)">
<stop offset="0.351" stop-color="#3183CE"/>
<stop offset="1" stop-color="#4188D4" stop-opacity="0"/>
</radialGradient>
<radialGradient id="paint6_radial_43_498" cx="0" cy="0" r="1" gradientUnits="userSpaceOnUse" gradientTransform="translate(19.8322 22.4505) rotate(-101.658) scale(6.14734 1.77496)">
<stop offset="0.086" stop-color="#55D2FF"/>
<stop offset="1" stop-color="#4EB9F4"/>
</radialGradient>
<radialGradient id="paint7_radial_43_498" cx="0" cy="0" r="1" gradientUnits="userSpaceOnUse" gradientTransform="translate(17.9587 22.2825) scale(1.0223 10.2671)">
<stop offset="0.034" stop-color="#189CF0"/>
<stop offset="0.8" stop-color="#189CF0" stop-opacity="0"/>
</radialGradient>
<radialGradient id="paint8_radial_43_498" cx="0" cy="0" r="1" gradientUnits="userSpaceOnUse" gradientTransform="translate(12.684 16.9458) rotate(132.839) scale(1.75797 2.68708)">
<stop stop-color="#407CCF"/>
<stop offset="1" stop-color="#3C73D6"/>
</radialGradient>
<radialGradient id="paint9_radial_43_498" cx="0" cy="0" r="1" gradientUnits="userSpaceOnUse" gradientTransform="translate(11.6047 18.0241) rotate(-34.5791) scale(1.46602 1.39899)">
<stop offset="0.676" stop-color="#4681D4" stop-opacity="0"/>
<stop offset="1" stop-color="#4681D4"/>
</radialGradient>
<linearGradient id="paint10_linear_43_498" x1="11.3947" y1="16.8166" x2="11.6235" y2="17.0746" gradientUnits="userSpaceOnUse">
<stop offset="0.193" stop-color="#33488B"/>
<stop offset="1" stop-color="#1B54BE" stop-opacity="0"/>
</linearGradient>
<linearGradient id="paint11_linear_43_498" x1="12.303" y1="16.6936" x2="12.1387" y2="16.9164" gradientUnits="userSpaceOnUse">
<stop offset="0.193" stop-color="#33488B"/>
<stop offset="1" stop-color="#1B54BE" stop-opacity="0"/>
</linearGradient>
<radialGradient id="paint12_radial_43_498" cx="0" cy="0" r="1" gradientUnits="userSpaceOnUse" gradientTransform="translate(11.9362 18.9145) rotate(90) scale(3.53615 0.98685)">
<stop stop-color="#3F7CD5"/>
<stop offset="1" stop-color="#3872D8"/>
</radialGradient>
<linearGradient id="paint13_linear_43_498" x1="13.0582" y1="20.9065" x2="12.3554" y2="21.0475" gradientUnits="userSpaceOnUse">
<stop stop-color="#4A88DF"/>
<stop offset="1" stop-color="#4A88DF" stop-opacity="0"/>
</linearGradient>
<linearGradient id="paint14_linear_43_498" x1="11.0077" y1="20.3328" x2="11.9362" y2="20.344" gradientUnits="userSpaceOnUse">
<stop stop-color="#3169C8"/>
<stop offset="1" stop-color="#3169C8" stop-opacity="0"/>
</linearGradient>
<radialGradient id="paint15_radial_43_498" cx="0" cy="0" r="1" gradientUnits="userSpaceOnUse" gradientTransform="translate(10.7122 17.7519) rotate(-73.4572) scale(1.73664 1.94637)">
<stop stop-color="#76C4FF"/>
<stop offset="1" stop-color="#76C4FF" stop-opacity="0"/>
</radialGradient>
<radialGradient id="paint16_radial_43_498" cx="0" cy="0" r="1" gradientUnits="userSpaceOnUse" gradientTransform="translate(10.5037 14.9649) rotate(102.949) scale(1.15055 1.70855)">
<stop offset="0.192" stop-color="#5D8CDE"/>
<stop offset="1" stop-color="#5D8CDE" stop-opacity="0"/>
</radialGradient>
<linearGradient id="paint17_linear_43_498" x1="14.0902" y1="16.8166" x2="12.9352" y2="16.5766" gradientUnits="userSpaceOnUse">
<stop stop-color="#8BE8FF"/>
<stop offset="1" stop-color="#75C1FF" stop-opacity="0"/>
</linearGradient>
<radialGradient id="paint18_radial_43_498" cx="0" cy="0" r="1" gradientUnits="userSpaceOnUse" gradientTransform="translate(12.7777 15.5274) rotate(41.9876) scale(0.472981 1.40239)">
<stop offset="0.491" stop-color="#639BE0"/>
<stop offset="0.902" stop-color="#639BE0" stop-opacity="0"/>
</radialGradient>
<radialGradient id="paint19_radial_43_498" cx="0" cy="0" r="1" gradientUnits="userSpaceOnUse" gradientTransform="translate(13.3402 14.9304) rotate(46.0416) scale(0.911656 2.5005)">
<stop offset="0.149" stop-color="#5FA3EC"/>
<stop offset="1" stop-color="#5FA3EC" stop-opacity="0"/>
</radialGradient>
<radialGradient id="paint20_radial_43_498" cx="0" cy="0" r="1" gradientUnits="userSpaceOnUse" gradientTransform="translate(13.1997 15.2806) rotate(148.065) scale(2.01607 1.72623)">
<stop offset="0.239" stop-color="#9B7282"/>
<stop offset="1" stop-color="#8B5D71"/>
</radialGradient>
<radialGradient id="paint21_radial_43_498" cx="0" cy="0" r="1" gradientUnits="userSpaceOnUse" gradientTransform="translate(11.5117 15) rotate(175.206) scale(1.82279 0.416936)">
<stop stop-color="#8E5879"/>
<stop offset="1" stop-color="#8E5879" stop-opacity="0"/>
</radialGradient>
<linearGradient id="paint22_linear_43_498" x1="15.9937" y1="19.6848" x2="14.1217" y2="19.6848" gradientUnits="userSpaceOnUse">
<stop stop-color="#FFD44C"/>
<stop offset="1" stop-color="#FFD24B"/>
</linearGradient>
<linearGradient id="paint23_linear_43_498" x1="9.82122" y1="20.1482" x2="6.57222" y2="20.1482" gradientUnits="userSpaceOnUse">
<stop stop-color="#FFD04C"/>
<stop offset="1" stop-color="#FFCD47"/>
</linearGradient>
<radialGradient id="paint24_radial_43_498" cx="0" cy="0" r="1" gradientUnits="userSpaceOnUse" gradientTransform="translate(6.4387 9.64016) scale(1.51225 2.64646)">
<stop offset="0.351" stop-color="#865D5F"/>
<stop offset="1" stop-color="#76594A"/>
</radialGradient>
<radialGradient id="paint25_radial_43_498" cx="0" cy="0" r="1" gradientUnits="userSpaceOnUse" gradientTransform="translate(7.87781 11.0781) rotate(-124.98) scale(1.4277)">
<stop offset="0.34" stop-color="#834E63"/>
<stop offset="1" stop-color="#834E63" stop-opacity="0"/>
</radialGradient>
<linearGradient id="paint26_linear_43_498" x1="7.878" y1="9.87996" x2="7.326" y2="9.87996" gradientUnits="userSpaceOnUse">
<stop stop-color="#694448"/>
<stop offset="1" stop-color="#6E464D"/>
</linearGradient>
<linearGradient id="paint27_linear_43_498" x1="17.0122" y1="8.69966" x2="16.3065" y2="10.8852" gradientUnits="userSpaceOnUse">
<stop stop-color="#CCA68C"/>
<stop offset="1" stop-color="#AE7F75"/>
</linearGradient>
<radialGradient id="paint28_radial_43_498" cx="0" cy="0" r="1" gradientUnits="userSpaceOnUse" gradientTransform="translate(16.3965 9.41216) rotate(-36.0604) scale(0.881263 1.00585)">
<stop offset="0.543" stop-color="#8F6459"/>
<stop offset="1" stop-color="#8F6459" stop-opacity="0"/>
</radialGradient>
<radialGradient id="paint29_radial_43_498" cx="0" cy="0" r="1" gradientUnits="userSpaceOnUse" gradientTransform="translate(16.0403 10.348) rotate(-61.4675) scale(1.48165 0.867214)">
<stop offset="0.755" stop-color="#8A5D55" stop-opacity="0"/>
<stop offset="0.916" stop-color="#8A5D55"/>
</radialGradient>
<radialGradient id="paint30_radial_43_498" cx="0" cy="0" r="1" gradientUnits="userSpaceOnUse" gradientTransform="translate(16.0755 9.63996) rotate(44.7081) scale(0.314394 0.405294)">
<stop stop-color="#895F52"/>
<stop offset="1" stop-color="#895F52" stop-opacity="0"/>
</radialGradient>
<radialGradient id="paint31_radial_43_498" cx="0" cy="0" r="1" gradientUnits="userSpaceOnUse" gradientTransform="translate(14.4089 9.97521) rotate(180) scale(4.11536 6.99012)">
<stop stop-color="#C89980"/>
<stop offset="1" stop-color="#926763"/>
</radialGradient>
<radialGradient id="paint32_radial_43_498" cx="0" cy="0" r="1" gradientUnits="userSpaceOnUse" gradientTransform="translate(14.0759 5.79396) rotate(122.2) scale(2.86129 2.40567)">
<stop offset="0.078" stop-color="#AF887B"/>
<stop offset="1" stop-color="#AF887B" stop-opacity="0"/>
</radialGradient>
<linearGradient id="paint33_linear_43_498" x1="16.4639" y1="11.3912" x2="14.2514" y2="11.3912" gradientUnits="userSpaceOnUse">
<stop stop-color="#C2987E"/>
<stop offset="1" stop-color="#C2987E" stop-opacity="0"/>
</linearGradient>
<radialGradient id="paint34_radial_43_498" cx="0" cy="0" r="1" gradientUnits="userSpaceOnUse" gradientTransform="translate(12.4424 5.05371) rotate(90) scale(10.3893 8.9604)">
<stop offset="0.811" stop-color="#956868" stop-opacity="0"/>
<stop offset="1" stop-color="#985682"/>
</radialGradient>
<radialGradient id="paint35_radial_43_498" cx="0" cy="0" r="1" gradientUnits="userSpaceOnUse" gradientTransform="translate(14.0932 8.87271) rotate(-90) scale(0.964432 1.24298)">
<stop offset="0.325" stop-color="#AB7872"/>
<stop offset="1" stop-color="#AB7872" stop-opacity="0"/>
</radialGradient>
<radialGradient id="paint36_radial_43_498" cx="0" cy="0" r="1" gradientUnits="userSpaceOnUse" gradientTransform="translate(9.94118 8.91171) rotate(-89.7858) scale(0.919026 1.04159)">
<stop offset="0.378" stop-color="#8F5D66"/>
<stop offset="1" stop-color="#8F5D66" stop-opacity="0"/>
</radialGradient>
<radialGradient id="paint37_radial_43_498" cx="0" cy="0" r="1" gradientUnits="userSpaceOnUse" gradientTransform="translate(14.9549 10.8055) rotate(176.531) scale(7.44484 18.2662)">
<stop offset="0.836" stop-color="#987064" stop-opacity="0"/>
<stop offset="1" stop-color="#987064"/>
</radialGradient>
<radialGradient id="paint38_radial_43_498" cx="0" cy="0" r="1" gradientUnits="userSpaceOnUse" gradientTransform="translate(6.01268 7.68021) rotate(-39.5937) scale(3.84313 1.12748)">
<stop offset="0.539" stop-color="#63413D"/>
<stop offset="1" stop-color="#63413D" stop-opacity="0"/>
</radialGradient>
<radialGradient id="paint39_radial_43_498" cx="0" cy="0" r="1" gradientUnits="userSpaceOnUse" gradientTransform="translate(16.8029 7.52571) rotate(95.5891) scale(2.10747 0.876733)">
<stop offset="0.245" stop-color="#BF9980"/>
<stop offset="1" stop-color="#BF9980" stop-opacity="0"/>
</radialGradient>
<radialGradient id="paint40_radial_43_498" cx="0" cy="0" r="1" gradientUnits="userSpaceOnUse" gradientTransform="translate(10.0147 9.55971) rotate(90) scale(0.732 1.46351)">
<stop stop-color="#9E7765"/>
<stop offset="1" stop-color="#9E7765" stop-opacity="0"/>
</radialGradient>
<radialGradient id="paint41_radial_43_498" cx="0" cy="0" r="1" gradientUnits="userSpaceOnUse" gradientTransform="translate(11.3437 7.59696) rotate(90) scale(2.37893 5.15372)">
<stop offset="0.404" stop-color="#7C4E5C"/>
<stop offset="1" stop-color="#7C4E5C" stop-opacity="0"/>
</radialGradient>
<radialGradient id="paint42_radial_43_498" cx="0" cy="0" r="1" gradientUnits="userSpaceOnUse" gradientTransform="translate(15.7132 6.10163) rotate(-74.8988) scale(2.63899 0.978622)">
<stop stop-color="#554042"/>
<stop offset="1" stop-color="#554042" stop-opacity="0"/>
</radialGradient>
<radialGradient id="paint43_radial_43_498" cx="0" cy="0" r="1" gradientUnits="userSpaceOnUse" gradientTransform="translate(14.2987 4.58513) rotate(5.25803) scale(3.30998 1.77975)">
<stop offset="0.392" stop-color="#644949"/>
<stop offset="1" stop-color="#644949" stop-opacity="0"/>
</radialGradient>
<radialGradient id="paint44_radial_43_498" cx="0" cy="0" r="1" gradientUnits="userSpaceOnUse" gradientTransform="translate(11.9692 2.22788) rotate(90) scale(1.44703 2.24104)">
<stop stop-color="#624C49"/>
<stop offset="1" stop-color="#624C49" stop-opacity="0"/>
</radialGradient>
<radialGradient id="paint45_radial_43_498" cx="0" cy="0" r="1" gradientUnits="userSpaceOnUse" gradientTransform="translate(6.41243 8.10338) rotate(-36.2348) scale(3.28412 5.14514)">
<stop stop-color="#4E3C3A"/>
<stop offset="1" stop-color="#4E3C3A" stop-opacity="0"/>
</radialGradient>
<linearGradient id="paint46_linear_43_498" x1="11.2245" y1="10.5436" x2="12.033" y2="10.5436" gradientUnits="userSpaceOnUse">
<stop stop-color="#8B6455"/>
<stop offset="1" stop-color="#8B6455" stop-opacity="0"/>
</linearGradient>
<linearGradient id="paint47_linear_43_498" x1="12.7777" y1="10.8219" x2="11.8942" y2="10.8091" gradientUnits="userSpaceOnUse">
<stop stop-color="#CDA186"/>
<stop offset="1" stop-color="#CDA186" stop-opacity="0"/>
</linearGradient>
<linearGradient id="paint48_linear_43_498" x1="12.1372" y1="11.4616" x2="12.1372" y2="10.9674" gradientUnits="userSpaceOnUse">
<stop stop-color="#9C6073"/>
<stop offset="1" stop-color="#9C6073" stop-opacity="0"/>
</linearGradient>
<radialGradient id="paint49_radial_43_498" cx="0" cy="0" r="1" gradientUnits="userSpaceOnUse" gradientTransform="translate(12.2512 11.0251) rotate(90) scale(0.16968 0.545137)">
<stop stop-color="#C39787"/>
<stop offset="1" stop-color="#C39787" stop-opacity="0"/>
</radialGradient>
<linearGradient id="paint50_linear_43_498" x1="11.9692" y1="9.05127" x2="12.0667" y2="10.0593" gradientUnits="userSpaceOnUse">
<stop stop-color="#8A5D62"/>
<stop offset="1" stop-color="#8A5D62" stop-opacity="0"/>
</linearGradient>
<linearGradient id="paint51_linear_43_498" x1="11.076" y1="12.853" x2="11.4503" y2="12.2605" gradientUnits="userSpaceOnUse">
<stop stop-color="#A87D7B"/>
<stop offset="0.663" stop-color="#A87D7B" stop-opacity="0"/>
</linearGradient>
<radialGradient id="paint52_radial_43_498" cx="0" cy="0" r="1" gradientUnits="userSpaceOnUse" gradientTransform="translate(13.8472 9.34011) rotate(90) scale(0.778298 0.920925)">
<stop offset="0.75" stop-color="#734D45"/>
<stop offset="1" stop-color="#553830"/>
</radialGradient>
<radialGradient id="paint53_radial_43_498" cx="0" cy="0" r="1" gradientUnits="userSpaceOnUse" gradientTransform="translate(13.65 9.12482) rotate(-127.812) scale(0.325909 0.448706)">
<stop offset="0.766" stop-color="#FFE6E2" stop-opacity="0"/>
<stop offset="0.966" stop-color="#FFE6E2"/>
</radialGradient>
<linearGradient id="paint54_linear_43_498" x1="14.517" y1="9.09841" x2="14.247" y2="9.26491" gradientUnits="userSpaceOnUse">
<stop stop-color="#B4948D"/>
<stop offset="1" stop-color="#B4948D" stop-opacity="0"/>
</linearGradient>
<radialGradient id="paint55_radial_43_498" cx="0" cy="0" r="1" gradientUnits="userSpaceOnUse" gradientTransform="translate(10.0875 9.34011) rotate(90) scale(0.778335 0.92097)">
<stop offset="0.75" stop-color="#734D45"/>
<stop offset="1" stop-color="#553830"/>
</radialGradient>
<linearGradient id="paint56_linear_43_498" x1="10.728" y1="9.09847" x2="10.4572" y2="9.26572" gradientUnits="userSpaceOnUse">
<stop stop-color="#B4948D"/>
<stop offset="1" stop-color="#B4948D" stop-opacity="0"/>
</linearGradient>
<radialGradient id="paint57_radial_43_498" cx="0" cy="0" r="1" gradientUnits="userSpaceOnUse" gradientTransform="translate(9.96799 9.21528) rotate(-118.811) scale(0.425729 0.511743)">
<stop offset="0.766" stop-color="#FFE6E2" stop-opacity="0"/>
<stop offset="0.966" stop-color="#FFE6E2"/>
</radialGradient>
<radialGradient id="paint58_radial_43_498" cx="0" cy="0" r="1" gradientUnits="userSpaceOnUse" gradientTransform="translate(15.8937 4.14931) rotate(153.716) scale(6.66576 8.48393)">
<stop stop-color="#48A8FB"/>
<stop offset="1" stop-color="#328FDD"/>
</radialGradient>
<linearGradient id="paint59_linear_43_498" x1="5.48849" y1="5.74293" x2="9.84749" y2="4.57068" gradientUnits="userSpaceOnUse">
<stop stop-color="#4389D1"/>
<stop offset="1" stop-color="#4389D1" stop-opacity="0"/>
</linearGradient>
<radialGradient id="paint60_radial_43_498" cx="0" cy="0" r="1" gradientUnits="userSpaceOnUse" gradientTransform="translate(15.66 3.09393) rotate(107.241) scale(1.42333 4.45603)">
<stop offset="0.148" stop-color="#47B7FB"/>
<stop offset="1" stop-color="#47B7FB" stop-opacity="0"/>
</radialGradient>
<linearGradient id="paint61_linear_43_498" x1="12.6742" y1="3.40659" x2="11.0947" y2="3.40659" gradientUnits="userSpaceOnUse">
<stop stop-color="#FFD44C"/>
<stop offset="1" stop-color="#FFD24B"/>
</linearGradient>
<radialGradient id="paint62_radial_43_498" cx="0" cy="0" r="1" gradientUnits="userSpaceOnUse" gradientTransform="translate(15.621 8.13378) rotate(-141.454) scale(6.56368 9.20445)">
<stop stop-color="#574A69"/>
<stop offset="1" stop-color="#46395B"/>
</radialGradient>
<radialGradient id="paint63_radial_43_498" cx="0" cy="0" r="1" gradientUnits="userSpaceOnUse" gradientTransform="translate(11.9775 8.67241) rotate(-90) scale(3.25195 7.94902)">
<stop offset="0.764" stop-color="#1D1B3E" stop-opacity="0"/>
<stop offset="0.917" stop-color="#1D1B3E"/>
</radialGradient>
<linearGradient id="paint64_linear_43_498" x1="8.23052" y1="5.77498" x2="16.3163" y2="5.77498" gradientUnits="userSpaceOnUse">
<stop stop-color="#73B8F6"/>
<stop offset="1" stop-color="#81D0FF"/>
</linearGradient>
<radialGradient id="paint65_radial_43_498" cx="0" cy="0" r="1" gradientUnits="userSpaceOnUse" gradientTransform="translate(15.4961 5.15662) rotate(101.822) scale(1.02965 8.7393)">
<stop stop-color="#87DDFF"/>
<stop offset="1" stop-color="#7DC8FC" stop-opacity="0"/>
</radialGradient>
<radialGradient id="paint66_radial_43_498" cx="0" cy="0" r="1" gradientUnits="userSpaceOnUse" gradientTransform="translate(17.2209 5.55473) rotate(137.81) scale(1.79053 1.9996)">
<stop stop-color="#8AE0FF"/>
<stop offset="1" stop-color="#8AE0FF" stop-opacity="0"/>
</radialGradient>
</defs>
</svg>
